STARTFONT 2.1
FONT -FontForge-Courgette-Book-R-Normal--16-160-72-72-P-83-ISO10646-1
SIZE 16 72 72
FONTBOUNDINGBOX 21 21 -3 -5
COMMENT "Generated by fontforge, http://fontforge.sourceforge.net"
COMMENT "Copyright (c) 2012, Sorkin Type Co (www.sorkintype.com) with Reserved Font Name "Courgette"."
STARTPROPERTIES 40
FOUNDRY "FontForge"
FAMILY_NAME "Courgette"
WEIGHT_NAME "Book"
SLANT "R"
SETWIDTH_NAME "Normal"
ADD_STYLE_NAME ""
PIXEL_SIZE 16
POINT_SIZE 160
RESOLUTION_X 72
RESOLUTION_Y 72
SPACING "P"
AVERAGE_WIDTH 83
CHARSET_REGISTRY "ISO10646"
CHARSET_ENCODING "1"
FONTNAME_REGISTRY ""
CHARSET_COLLECTIONS "ISO8859-2 ISO8859-9 ISO8859-4 ISO10646-1"
FONT_NAME "Courgette-Regular"
FACE_NAME "Courgette Regular"
COPYRIGHT "Copyright (c) 2012, Sorkin Type Co (www.sorkintype.com) with Reserved Font Name "Courgette"."
FONT_VERSION "1.002"
FONT_ASCENT 13
FONT_DESCENT 3
UNDERLINE_POSITION -2
UNDERLINE_THICKNESS 1
X_HEIGHT 7
CAP_HEIGHT 11
DEFAULT_CHAR 1
RAW_ASCENT 799
RAW_DESCENT 200
NORM_SPACE 5
RELATIVE_WEIGHT 40
RELATIVE_SETWIDTH 50
SUPERSCRIPT_X 0
SUPERSCRIPT_Y 7
SUPERSCRIPT_SIZE 10
SUBSCRIPT_X 0
SUBSCRIPT_Y 2
SUBSCRIPT_SIZE 10
AVG_LOWERCASE_WIDTH 80
AVG_UPPERCASE_WIDTH 93
ENDPROPERTIES
CHARS 407
STARTCHAR .null.dup1
ENCODING 0
SWIDTH 0 0
DWIDTH 0 0
BBX 1 1 0 0
BITMAP
00
ENDCHAR
STARTCHAR uni0001
ENCODING 1
SWIDTH 0 0
DWIDTH 0 0
BBX 1 1 0 0
BITMAP
00
ENDCHAR
STARTCHAR uni0002
ENCODING 2
SWIDTH 0 0
DWIDTH 0 0
BBX 1 1 0 0
BITMAP
00
ENDCHAR
STARTCHAR uni0003
ENCODING 3
SWIDTH 0 0
DWIDTH 0 0
BBX 1 1 0 0
BITMAP
00
ENDCHAR
STARTCHAR uni0004
ENCODING 4
SWIDTH 0 0
DWIDTH 0 0
BBX 1 1 0 0
BITMAP
00
ENDCHAR
STARTCHAR uni0005
ENCODING 5
SWIDTH 0 0
DWIDTH 0 0
BBX 1 1 0 0
BITMAP
00
ENDCHAR
STARTCHAR uni0006
ENCODING 6
SWIDTH 0 0
DWIDTH 0 0
BBX 1 1 0 0
BITMAP
00
ENDCHAR
STARTCHAR uni0007
ENCODING 7
SWIDTH 0 0
DWIDTH 0 0
BBX 1 1 0 0
BITMAP
00
ENDCHAR
STARTCHAR uni0008
ENCODING 8
SWIDTH 0 0
DWIDTH 0 0
BBX 1 1 0 0
BITMAP
00
ENDCHAR
STARTCHAR uni0009
ENCODING 9
SWIDTH 0 0
DWIDTH 0 0
BBX 1 1 0 0
BITMAP
00
ENDCHAR
STARTCHAR nonmarkingreturn
ENCODING 13
SWIDTH 0 0
DWIDTH 0 0
BBX 1 1 0 0
BITMAP
00
ENDCHAR
STARTCHAR uni0015
ENCODING 21
SWIDTH 0 0
DWIDTH 0 0
BBX 1 1 0 0
BITMAP
00
ENDCHAR
STARTCHAR uni0016
ENCODING 22
SWIDTH 0 0
DWIDTH 0 0
BBX 1 1 0 0
BITMAP
00
ENDCHAR
STARTCHAR uni0017
ENCODING 23
SWIDTH 0 0
DWIDTH 0 0
BBX 1 1 0 0
BITMAP
00
ENDCHAR
STARTCHAR uni0018
ENCODING 24
SWIDTH 0 0
DWIDTH 0 0
BBX 1 1 0 0
BITMAP
00
ENDCHAR
STARTCHAR uni0019
ENCODING 25
SWIDTH 0 0
DWIDTH 0 0
BBX 1 1 0 0
BITMAP
00
ENDCHAR
STARTCHAR space
ENCODING 32
SWIDTH 307 0
DWIDTH 5 0
BBX 1 1 0 0
BITMAP
00
ENDCHAR
STARTCHAR exclam
ENCODING 33
SWIDTH 417 0
DWIDTH 7 0
BBX 6 12 1 0
BITMAP
0C
0C
18
18
30
30
20
20
40
40
E0
40
ENDCHAR
STARTCHAR quotedbl
ENCODING 34
SWIDTH 437 0
DWIDTH 7 0
BBX 6 4 2 9
BITMAP
6C
CC
C8
90
ENDCHAR
STARTCHAR numbersign
ENCODING 35
SWIDTH 725 0
DWIDTH 12 0
BBX 10 12 1 0
BITMAP
06C0
0480
0D80
0980
7FC0
1B00
1200
FF80
2600
2400
2400
4C00
ENDCHAR
STARTCHAR dollar
ENCODING 36
SWIDTH 545 0
DWIDTH 9 0
BBX 8 16 1 -2
BITMAP
01
03
0E
11
21
63
63
76
30
18
18
C8
C8
70
40
40
ENDCHAR
STARTCHAR percent
ENCODING 37
SWIDTH 876 0
DWIDTH 14 0
BBX 12 12 1 0
BITMAP
3820
6C60
CCC0
C980
DB00
7200
04E0
0DB0
1930
3330
6160
41C0
ENDCHAR
STARTCHAR ampersand
ENCODING 38
SWIDTH 563 0
DWIDTH 9 0
BBX 8 12 1 0
BITMAP
1E
31
61
67
46
60
38
E0
CF
84
88
F0
ENDCHAR
STARTCHAR quotesingle
ENCODING 39
SWIDTH 231 0
DWIDTH 4 0
BBX 3 4 2 9
BITMAP
60
C0
C0
80
ENDCHAR
STARTCHAR parenleft
ENCODING 40
SWIDTH 478 0
DWIDTH 8 0
BBX 8 18 2 -4
BITMAP
03
04
08
10
30
60
60
40
C0
C0
C0
80
80
C0
C0
C0
60
20
ENDCHAR
STARTCHAR parenright
ENCODING 41
SWIDTH 478 0
DWIDTH 8 0
BBX 8 18 -2 -4
BITMAP
04
02
03
03
01
01
01
03
03
03
03
06
06
0C
08
10
20
C0
ENDCHAR
STARTCHAR asterisk
ENCODING 42
SWIDTH 518 0
DWIDTH 8 0
BBX 6 6 2 6
BITMAP
18
B0
6C
30
50
98
ENDCHAR
STARTCHAR plus
ENCODING 43
SWIDTH 617 0
DWIDTH 10 0
BBX 8 8 1 2
BITMAP
08
18
18
18
FF
18
18
18
ENDCHAR
STARTCHAR comma
ENCODING 44
SWIDTH 312 0
DWIDTH 5 0
BBX 3 5 0 -2
BITMAP
40
60
60
40
80
ENDCHAR
STARTCHAR hyphen
ENCODING 45
SWIDTH 452 0
DWIDTH 7 0
BBX 5 1 1 4
BITMAP
F8
ENDCHAR
STARTCHAR period
ENCODING 46
SWIDTH 270 0
DWIDTH 4 0
BBX 3 2 0 0
BITMAP
60
E0
ENDCHAR
STARTCHAR slash
ENCODING 47
SWIDTH 405 0
DWIDTH 7 0
BBX 10 17 -1 -3
BITMAP
0040
00C0
0080
0180
0300
0200
0600
0400
0C00
0800
1800
1000
2000
6000
4000
C000
8000
ENDCHAR
STARTCHAR zero
ENCODING 48
SWIDTH 621 0
DWIDTH 10 0
BBX 9 12 1 0
BITMAP
0700
1980
3180
3180
6180
6180
C300
C300
C600
C600
CC00
7000
ENDCHAR
STARTCHAR one
ENCODING 49
SWIDTH 405 0
DWIDTH 7 0
BBX 6 12 1 0
BITMAP
18
3C
68
18
18
10
30
20
60
40
40
80
ENDCHAR
STARTCHAR two
ENCODING 50
SWIDTH 524 0
DWIDTH 8 0
BBX 9 12 0 0
BITMAP
0F00
1900
3180
3100
1300
0600
0C00
1800
3000
6000
7E00
8E00
ENDCHAR
STARTCHAR three
ENCODING 51
SWIDTH 537 0
DWIDTH 9 0
BBX 8 12 1 0
BITMAP
1E
33
63
73
66
0E
38
0C
0C
CC
98
F0
ENDCHAR
STARTCHAR four
ENCODING 52
SWIDTH 529 0
DWIDTH 8 0
BBX 7 12 1 0
BITMAP
10
30
30
22
66
C6
C4
FE
08
18
10
20
ENDCHAR
STARTCHAR five
ENCODING 53
SWIDTH 540 0
DWIDTH 9 0
BBX 9 12 1 0
BITMAP
1F80
1700
3000
2000
7C00
6600
0600
0600
C400
8C00
9800
F000
ENDCHAR
STARTCHAR six
ENCODING 54
SWIDTH 554 0
DWIDTH 9 0
BBX 8 12 1 0
BITMAP
0F
19
33
63
60
5C
E6
C6
C6
C6
CC
78
ENDCHAR
STARTCHAR seven
ENCODING 55
SWIDTH 473 0
DWIDTH 8 0
BBX 7 12 2 0
BITMAP
FE
F4
0C
18
10
30
60
40
C0
C0
80
80
ENDCHAR
STARTCHAR eight
ENCODING 56
SWIDTH 524 0
DWIDTH 8 0
BBX 8 12 1 0
BITMAP
1E
23
23
63
22
36
38
78
CC
8C
C8
70
ENDCHAR
STARTCHAR nine
ENCODING 57
SWIDTH 554 0
DWIDTH 9 0
BBX 8 12 1 0
BITMAP
1E
33
63
63
63
47
66
3E
04
CC
98
F0
ENDCHAR
STARTCHAR colon
ENCODING 58
SWIDTH 312 0
DWIDTH 5 0
BBX 4 7 0 0
BITMAP
30
30
00
00
00
60
E0
ENDCHAR
STARTCHAR semicolon
ENCODING 59
SWIDTH 312 0
DWIDTH 5 0
BBX 4 10 0 -2
BITMAP
20
30
30
00
00
40
60
60
40
80
ENDCHAR
STARTCHAR less
ENCODING 60
SWIDTH 637 0
DWIDTH 10 0
BBX 8 8 1 1
BITMAP
01
06
18
60
E0
38
0E
03
ENDCHAR
STARTCHAR equal
ENCODING 61
SWIDTH 617 0
DWIDTH 10 0
BBX 8 4 1 4
BITMAP
FF
00
00
FF
ENDCHAR
STARTCHAR greater
ENCODING 62
SWIDTH 606 0
DWIDTH 10 0
BBX 8 8 1 1
BITMAP
C0
30
1C
07
06
18
70
C0
ENDCHAR
STARTCHAR question
ENCODING 63
SWIDTH 516 0
DWIDTH 8 0
BBX 8 12 1 0
BITMAP
1E
33
33
32
06
1C
38
20
20
00
E0
E0
ENDCHAR
STARTCHAR at
ENCODING 64
SWIDTH 905 0
DWIDTH 14 0
BBX 13 13 1 -2
BITMAP
07E0
1830
3018
6348
4CC8
C888
9988
9990
9BB0
CDC0
C000
6080
1F00
ENDCHAR
STARTCHAR A
ENCODING 65
SWIDTH 615 0
DWIDTH 10 0
BBX 11 12 -1 0
BITMAP
0060
01A0
0360
0240
04C0
0CC0
1FE0
3180
3180
2180
6180
C1C0
ENDCHAR
STARTCHAR B
ENCODING 66
SWIDTH 551 0
DWIDTH 9 0
BBX 9 12 1 0
BITMAP
3E00
E100
3180
3180
6300
6600
FC00
C600
8600
8600
8C00
F000
ENDCHAR
STARTCHAR C
ENCODING 67
SWIDTH 533 0
DWIDTH 9 0
BBX 9 12 1 0
BITMAP
0700
1980
3180
6300
6700
C200
C000
C000
C000
C000
C400
7800
ENDCHAR
STARTCHAR D
ENCODING 68
SWIDTH 630 0
DWIDTH 10 0
BBX 9 12 1 0
BITMAP
7E00
6180
1980
3080
3080
6180
6180
C300
C300
C600
9C00
F000
ENDCHAR
STARTCHAR E
ENCODING 69
SWIDTH 509 0
DWIDTH 8 0
BBX 8 12 1 0
BITMAP
0F
39
61
67
66
60
38
60
C0
C4
CC
78
ENDCHAR
STARTCHAR F
ENCODING 70
SWIDTH 518 0
DWIDTH 8 0
BBX 10 12 0 0
BITMAP
3C40
6780
4C00
0C00
0C00
1800
3F00
1800
3000
3000
6000
C000
ENDCHAR
STARTCHAR G
ENCODING 71
SWIDTH 598 0
DWIDTH 10 0
BBX 9 12 1 0
BITMAP
0700
1980
3180
6180
6700
C200
C000
CF00
C700
C400
CC00
7800
ENDCHAR
STARTCHAR H
ENCODING 72
SWIDTH 668 0
DWIDTH 11 0
BBX 12 12 -1 0
BITMAP
3C10
0430
0C30
0C30
0C60
0FF0
3860
18C0
30C0
3080
6180
C0E0
ENDCHAR
STARTCHAR I
ENCODING 73
SWIDTH 327 0
DWIDTH 5 0
BBX 6 12 0 0
BITMAP
38
0C
08
18
18
18
10
30
30
60
40
80
ENDCHAR
STARTCHAR J
ENCODING 74
SWIDTH 393 0
DWIDTH 6 0
BBX 10 16 -3 -4
BITMAP
0780
0CC0
08C0
0080
0180
0180
0180
0300
0300
0600
0600
0C00
0C00
1800
3000
E000
ENDCHAR
STARTCHAR K
ENCODING 75
SWIDTH 616 0
DWIDTH 10 0
BBX 11 12 -1 0
BITMAP
3C60
0C20
0C60
0C60
08C0
1900
1E00
1E00
3300
3300
6180
C0E0
ENDCHAR
STARTCHAR L
ENCODING 76
SWIDTH 517 0
DWIDTH 8 0
BBX 9 12 0 0
BITMAP
0700
0C80
0880
1980
1300
3600
3000
6000
6000
4000
FE00
F600
ENDCHAR
STARTCHAR M
ENCODING 77
SWIDTH 931 0
DWIDTH 15 0
BBX 17 12 -2 0
BITMAP
006180
00E380
016500
02CF00
06CB00
04D200
0C9600
09A600
19A600
31C400
21C400
E18700
ENDCHAR
STARTCHAR N
ENCODING 78
SWIDTH 708 0
DWIDTH 11 0
BBX 12 12 0 0
BITMAP
0630
0E30
1E30
1630
3630
2620
6660
6640
4680
4380
C380
C100
ENDCHAR
STARTCHAR O
ENCODING 79
SWIDTH 655 0
DWIDTH 10 0
BBX 10 12 1 0
BITMAP
0780
1880
30C0
30C0
60C0
4080
C180
C180
C300
C600
CC00
7800
ENDCHAR
STARTCHAR P
ENCODING 80
SWIDTH 553 0
DWIDTH 9 0
BBX 11 12 -1 0
BITMAP
0F80
1860
0460
0C60
0CC0
1980
1F00
1000
3000
3000
6000
C000
ENDCHAR
STARTCHAR Q
ENCODING 81
SWIDTH 655 0
DWIDTH 10 0
BBX 11 14 1 -2
BITMAP
0F00
1880
30C0
60C0
60C0
4180
C180
C300
C200
6600
1800
7C00
0700
01E0
ENDCHAR
STARTCHAR R
ENCODING 82
SWIDTH 623 0
DWIDTH 10 0
BBX 10 12 0 0
BITMAP
1F00
30C0
08C0
18C0
18C0
1180
3F00
3C00
6600
6600
C300
81C0
ENDCHAR
STARTCHAR S
ENCODING 83
SWIDTH 474 0
DWIDTH 8 0
BBX 9 12 0 0
BITMAP
0F00
1980
3180
3180
3300
3200
3800
1800
0C00
4C00
C800
7000
ENDCHAR
STARTCHAR T
ENCODING 84
SWIDTH 471 0
DWIDTH 8 0
BBX 9 12 1 0
BITMAP
7880
CF80
8C00
1800
1800
1800
1000
3000
3000
2000
6000
C000
ENDCHAR
STARTCHAR U
ENCODING 85
SWIDTH 624 0
DWIDTH 10 0
BBX 11 12 0 0
BITMAP
1820
0860
18C0
18C0
31C0
3180
6380
6380
6500
C700
CB00
71C0
ENDCHAR
STARTCHAR V
ENCODING 86
SWIDTH 587 0
DWIDTH 9 0
BBX 11 12 1 0
BITMAP
F0C0
5860
1840
30C0
3080
6180
6300
4600
CC00
D800
F000
6000
ENDCHAR
STARTCHAR W
ENCODING 87
SWIDTH 941 0
DWIDTH 15 0
BBX 15 12 1 0
BITMAP
F00E
5806
18C6
3186
3386
6704
6F0C
CB0C
D318
D310
E320
41C0
ENDCHAR
STARTCHAR X
ENCODING 88
SWIDTH 552 0
DWIDTH 9 0
BBX 12 12 -1 0
BITMAP
0430
0C60
0CC0
0D80
0500
0600
0600
0E00
1E00
3300
6340
C180
ENDCHAR
STARTCHAR Y
ENCODING 89
SWIDTH 580 0
DWIDTH 9 0
BBX 11 16 0 -4
BITMAP
1860
1860
18C0
18C0
3180
3180
6380
6300
4500
C700
CA00
7600
0C00
0800
1000
6000
ENDCHAR
STARTCHAR Z
ENCODING 90
SWIDTH 501 0
DWIDTH 8 0
BBX 10 12 0 0
BITMAP
3F80
3DC0
0380
0700
0E00
0C00
1800
3000
6000
E000
DE00
FF00
ENDCHAR
STARTCHAR bracketleft
ENCODING 91
SWIDTH 396 0
DWIDTH 6 0
BBX 8 17 0 -3
BITMAP
07
06
04
0C
0C
08
18
18
10
30
30
20
60
60
40
C0
E0
ENDCHAR
STARTCHAR backslash
ENCODING 92
SWIDTH 464 0
DWIDTH 7 0
BBX 5 17 1 -3
BITMAP
80
80
C0
40
40
40
60
20
20
20
30
10
10
10
18
08
08
ENDCHAR
STARTCHAR bracketright
ENCODING 93
SWIDTH 394 0
DWIDTH 6 0
BBX 8 17 -1 -3
BITMAP
07
01
03
03
02
06
04
04
0C
08
08
18
10
30
30
20
E0
ENDCHAR
STARTCHAR asciicircum
ENCODING 94
SWIDTH 540 0
DWIDTH 9 0
BBX 7 7 1 5
BITMAP
18
18
3C
24
66
42
C2
ENDCHAR
STARTCHAR underscore
ENCODING 95
SWIDTH 530 0
DWIDTH 9 0
BBX 11 1 -3 -3
BITMAP
FFE0
ENDCHAR
STARTCHAR grave
ENCODING 96
SWIDTH 219 0
DWIDTH 4 0
BBX 2 4 1 8
BITMAP
80
80
80
40
ENDCHAR
STARTCHAR a
ENCODING 97
SWIDTH 541 0
DWIDTH 9 0
BBX 8 8 1 0
BITMAP
1B
66
46
C4
8C
8C
9C
EE
ENDCHAR
STARTCHAR b
ENCODING 98
SWIDTH 525 0
DWIDTH 8 0
BBX 7 13 1 0
BITMAP
30
30
30
20
60
7C
66
E6
C6
84
8C
98
F0
ENDCHAR
STARTCHAR c
ENCODING 99
SWIDTH 465 0
DWIDTH 7 0
BBX 6 8 1 0
BITMAP
3C
64
C4
CC
80
80
88
F0
ENDCHAR
STARTCHAR d
ENCODING 100
SWIDTH 557 0
DWIDTH 9 0
BBX 9 13 1 0
BITMAP
0080
0180
0180
0100
0300
1F00
2600
4600
C600
CC00
8C00
9D00
E600
ENDCHAR
STARTCHAR e
ENCODING 101
SWIDTH 471 0
DWIDTH 8 0
BBX 6 8 1 0
BITMAP
1C
64
44
CC
F8
80
C8
78
ENDCHAR
STARTCHAR f
ENCODING 102
SWIDTH 393 0
DWIDTH 6 0
BBX 9 15 0 -2
BITMAP
0700
0D80
0980
1B00
1800
1000
7E00
3000
2000
2000
6000
6000
4000
C000
8000
ENDCHAR
STARTCHAR g
ENCODING 103
SWIDTH 526 0
DWIDTH 8 0
BBX 8 12 1 -4
BITMAP
1F
66
46
C6
CC
8C
9C
E8
18
10
30
E0
ENDCHAR
STARTCHAR h
ENCODING 104
SWIDTH 555 0
DWIDTH 9 0
BBX 8 13 0 0
BITMAP
08
08
18
18
18
17
3B
2B
33
66
46
C6
C7
ENDCHAR
STARTCHAR i
ENCODING 105
SWIDTH 286 0
DWIDTH 5 0
BBX 5 12 0 0
BITMAP
18
18
00
00
30
30
30
20
60
40
E0
60
ENDCHAR
STARTCHAR j
ENCODING 106
SWIDTH 281 0
DWIDTH 5 0
BBX 8 16 -3 -4
BITMAP
03
07
00
00
06
06
06
04
0C
0C
08
18
18
30
20
C0
ENDCHAR
STARTCHAR k
ENCODING 107
SWIDTH 497 0
DWIDTH 8 0
BBX 8 13 0 0
BITMAP
08
08
18
18
10
13
33
26
2C
70
58
CD
CE
ENDCHAR
STARTCHAR l
ENCODING 108
SWIDTH 279 0
DWIDTH 4 0
BBX 4 13 1 0
BITMAP
30
30
30
30
20
60
60
40
C0
C0
80
A0
C0
ENDCHAR
STARTCHAR m
ENCODING 109
SWIDTH 814 0
DWIDTH 13 0
BBX 12 8 0 0
BITMAP
3330
3550
3BB0
3330
6260
4660
C470
C470
ENDCHAR
STARTCHAR n
ENCODING 110
SWIDTH 561 0
DWIDTH 9 0
BBX 8 8 0 0
BITMAP
33
35
3B
33
66
46
C6
C7
ENDCHAR
STARTCHAR o
ENCODING 111
SWIDTH 514 0
DWIDTH 8 0
BBX 7 8 1 0
BITMAP
3C
66
C6
C6
CC
8C
98
F0
ENDCHAR
STARTCHAR p
ENCODING 112
SWIDTH 550 0
DWIDTH 9 0
BBX 9 12 -1 -4
BITMAP
3B80
1580
1980
3180
3180
3300
3600
7C00
6000
4000
C000
8000
ENDCHAR
STARTCHAR q
ENCODING 113
SWIDTH 533 0
DWIDTH 9 0
BBX 8 12 1 -4
BITMAP
1C
67
46
C6
CC
8C
98
E8
18
18
10
18
ENDCHAR
STARTCHAR r
ENCODING 114
SWIDTH 407 0
DWIDTH 7 0
BBX 7 8 0 0
BITMAP
36
3E
28
30
60
60
C0
C0
ENDCHAR
STARTCHAR s
ENCODING 115
SWIDTH 423 0
DWIDTH 7 0
BBX 7 8 0 0
BITMAP
1C
26
24
30
38
58
D8
70
ENDCHAR
STARTCHAR t
ENCODING 116
SWIDTH 358 0
DWIDTH 6 0
BBX 6 10 1 0
BITMAP
10
30
FC
60
60
40
C0
C0
D0
60
ENDCHAR
STARTCHAR u
ENCODING 117
SWIDTH 553 0
DWIDTH 9 0
BBX 9 8 0 0
BITMAP
3180
3100
3300
6700
6600
6E00
D600
6700
ENDCHAR
STARTCHAR v
ENCODING 118
SWIDTH 510 0
DWIDTH 8 0
BBX 8 8 0 0
BITMAP
33
33
33
23
62
44
CC
70
ENDCHAR
STARTCHAR w
ENCODING 119
SWIDTH 750 0
DWIDTH 12 0
BBX 11 8 1 0
BITMAP
6060
6660
6660
4C40
DC40
9C80
ED80
C600
ENDCHAR
STARTCHAR x
ENCODING 120
SWIDTH 467 0
DWIDTH 7 0
BBX 8 8 0 0
BITMAP
33
36
3C
38
30
30
58
8E
ENDCHAR
STARTCHAR y
ENCODING 121
SWIDTH 549 0
DWIDTH 9 0
BBX 9 13 0 -5
BITMAP
3180
3180
3300
2300
6700
6A00
D600
6400
0C00
0800
1800
3000
6000
ENDCHAR
STARTCHAR z
ENCODING 122
SWIDTH 430 0
DWIDTH 7 0
BBX 7 8 0 0
BITMAP
36
1E
0C
18
30
60
F8
EC
ENDCHAR
STARTCHAR braceleft
ENCODING 123
SWIDTH 424 0
DWIDTH 7 0
BBX 8 17 1 -3
BITMAP
07
04
0C
0C
08
18
18
30
60
60
60
60
40
C0
C0
C0
E0
ENDCHAR
STARTCHAR bar
ENCODING 124
SWIDTH 306 0
DWIDTH 5 0
BBX 1 17 2 -3
BITMAP
80
80
80
80
80
80
80
80
80
80
80
80
80
80
80
80
80
ENDCHAR
STARTCHAR braceright
ENCODING 125
SWIDTH 424 0
DWIDTH 7 0
BBX 8 17 -1 -3
BITMAP
07
03
03
02
06
06
04
06
0E
08
18
10
30
30
30
60
E0
ENDCHAR
STARTCHAR asciitilde
ENCODING 126
SWIDTH 624 0
DWIDTH 10 0
BBX 9 3 1 4
BITMAP
7080
9900
8E00
ENDCHAR
STARTCHAR nonbreakingspace
ENCODING 160
SWIDTH 293 0
DWIDTH 5 0
BBX 1 1 0 0
BITMAP
00
ENDCHAR
STARTCHAR exclamdown
ENCODING 161
SWIDTH 417 0
DWIDTH 7 0
BBX 6 13 0 -4
BITMAP
0C
0C
00
10
10
30
20
60
60
60
C0
40
40
ENDCHAR
STARTCHAR cent
ENCODING 162
SWIDTH 487 0
DWIDTH 8 0
BBX 7 12 1 0
BITMAP
06
04
1C
36
66
4C
C0
C0
CC
78
60
40
ENDCHAR
STARTCHAR sterling
ENCODING 163
SWIDTH 665 0
DWIDTH 11 0
BBX 11 12 0 0
BITMAP
01C0
0320
0660
0660
0CC0
0C80
3F00
1800
1800
F800
BFC0
E380
ENDCHAR
STARTCHAR currency
ENCODING 164
SWIDTH 572 0
DWIDTH 9 0
BBX 9 10 1 1
BITMAP
1180
3100
1E00
3600
6200
6600
4600
4C00
7C00
8400
ENDCHAR
STARTCHAR yen
ENCODING 165
SWIDTH 583 0
DWIDTH 9 0
BBX 10 12 1 0
BITMAP
E0C0
E1C0
3380
3300
1600
1400
1C00
7E00
1800
FC00
3000
3000
ENDCHAR
STARTCHAR brokenbar
ENCODING 166
SWIDTH 292 0
DWIDTH 5 0
BBX 1 17 2 -3
BITMAP
80
80
80
80
80
80
80
80
00
80
80
80
80
80
80
80
80
ENDCHAR
STARTCHAR section
ENCODING 167
SWIDTH 583 0
DWIDTH 9 0
BBX 10 16 0 -3
BITMAP
0780
0C80
0CC0
0D80
0D80
0C00
3600
2600
6300
3300
3200
1C00
1800
C800
C800
7000
ENDCHAR
STARTCHAR dieresis
ENCODING 168
SWIDTH 412 0
DWIDTH 7 0
BBX 6 2 1 10
BITMAP
DC
DC
ENDCHAR
STARTCHAR copyright
ENCODING 169
SWIDTH 871 0
DWIDTH 14 0
BBX 12 12 1 0
BITMAP
07C0
1860
23B0
6C90
4C90
D990
D810
D930
CF20
4060
20C0
1F00
ENDCHAR
STARTCHAR ordfeminine
ENCODING 170
SWIDTH 564 0
DWIDTH 9 0
BBX 7 7 2 5
BITMAP
3E
66
CC
CC
98
98
EE
ENDCHAR
STARTCHAR guillemotleft
ENCODING 171
SWIDTH 662 0
DWIDTH 11 0
BBX 9 7 1 1
BITMAP
0880
3300
6600
CC00
6600
3300
1100
ENDCHAR
STARTCHAR logicalnot
ENCODING 172
SWIDTH 729 0
DWIDTH 12 0
BBX 9 5 1 1
BITMAP
FF80
0080
0080
0080
0080
ENDCHAR
STARTCHAR uni00AD
ENCODING 173
SWIDTH 833 0
DWIDTH 13 0
BBX 1 1 0 0
BITMAP
00
ENDCHAR
STARTCHAR registered
ENCODING 174
SWIDTH 742 0
DWIDTH 12 0
BBX 10 10 1 2
BITMAP
0F00
30C0
3F40
4940
4B40
CC40
5E40
5380
6180
3E00
ENDCHAR
STARTCHAR macron
ENCODING 175
SWIDTH 392 0
DWIDTH 6 0
BBX 6 1 1 9
BITMAP
FC
ENDCHAR
STARTCHAR degree
ENCODING 176
SWIDTH 405 0
DWIDTH 7 0
BBX 5 5 2 7
BITMAP
70
D8
98
90
E0
ENDCHAR
STARTCHAR plusminus
ENCODING 177
SWIDTH 617 0
DWIDTH 10 0
BBX 8 10 1 0
BITMAP
18
18
18
FF
18
18
18
10
00
FF
ENDCHAR
STARTCHAR twosuperior
ENCODING 178
SWIDTH 458 0
DWIDTH 7 0
BBX 7 8 1 4
BITMAP
1C
26
26
3C
18
30
64
F8
ENDCHAR
STARTCHAR threesuperior
ENCODING 179
SWIDTH 430 0
DWIDTH 7 0
BBX 7 9 1 3
BITMAP
1C
26
26
0C
38
08
C8
D8
70
ENDCHAR
STARTCHAR acute
ENCODING 180
SWIDTH 322 0
DWIDTH 5 0
BBX 4 4 1 9
BITMAP
10
30
20
C0
ENDCHAR
STARTCHAR mu
ENCODING 181
SWIDTH 618 0
DWIDTH 10 0
BBX 10 12 -1 -4
BITMAP
0C40
08C0
18C0
1180
3380
3300
75C0
7980
4000
4000
4000
C000
ENDCHAR
STARTCHAR paragraph
ENCODING 182
SWIDTH 739 0
DWIDTH 12 0
BBX 14 14 0 -1
BITMAP
01FC
0790
0F30
1F30
1F20
1F20
0E60
0660
0640
06C0
2C80
6C80
C980
7100
ENDCHAR
STARTCHAR periodcentered
ENCODING 183
SWIDTH 353 0
DWIDTH 6 0
BBX 2 2 2 4
BITMAP
C0
C0
ENDCHAR
STARTCHAR cedilla
ENCODING 184
SWIDTH 301 0
DWIDTH 5 0
BBX 3 4 1 -4
BITMAP
40
20
60
C0
ENDCHAR
STARTCHAR onesuperior
ENCODING 185
SWIDTH 403 0
DWIDTH 6 0
BBX 4 9 2 3
BITMAP
10
70
F0
30
20
60
40
C0
80
ENDCHAR
STARTCHAR ordmasculine
ENCODING 186
SWIDTH 498 0
DWIDTH 8 0
BBX 6 7 2 4
BITMAP
38
6C
CC
CC
88
98
F0
ENDCHAR
STARTCHAR guillemotright
ENCODING 187
SWIDTH 665 0
DWIDTH 11 0
BBX 9 7 1 1
BITMAP
4400
6600
3300
1980
6600
CC00
8800
ENDCHAR
STARTCHAR onequarter
ENCODING 188
SWIDTH 988 0
DWIDTH 16 0
BBX 13 13 2 0
BITMAP
00C0
3180
7100
F300
2200
66C0
44C0
CC90
99B0
11F8
3020
2060
6040
ENDCHAR
STARTCHAR onehalf
ENCODING 189
SWIDTH 988 0
DWIDTH 16 0
BBX 13 13 2 0
BITMAP
00C0
3180
7100
F300
2200
6670
4498
CCD8
9830
1070
30C0
2180
63F0
ENDCHAR
STARTCHAR threequarters
ENCODING 190
SWIDTH 1007 0
DWIDTH 16 0
BBX 14 13 1 0
BITMAP
0020
3860
6C40
6CC0
18A0
3130
9B20
922C
E66C
0448
0C7C
0810
1020
ENDCHAR
STARTCHAR questiondown
ENCODING 191
SWIDTH 516 0
DWIDTH 8 0
BBX 7 12 0 -3
BITMAP
06
06
00
04
0C
18
30
60
C8
8C
C8
70
ENDCHAR
STARTCHAR Agrave
ENCODING 192
SWIDTH 615 0
DWIDTH 10 0
BBX 11 16 -1 0
BITMAP
0040
00C0
00C0
0020
0060
01A0
0360
0240
04C0
0CC0
1FE0
3180
3180
2180
6180
C1C0
ENDCHAR
STARTCHAR Aacute
ENCODING 193
SWIDTH 615 0
DWIDTH 10 0
BBX 12 15 -1 0
BITMAP
0010
0030
0040
0060
01A0
0360
0240
04C0
0CC0
1FE0
3180
3180
2180
6180
C1C0
ENDCHAR
STARTCHAR Acircumflex
ENCODING 194
SWIDTH 615 0
DWIDTH 10 0
BBX 12 15 -1 0
BITMAP
0020
00F0
0110
0060
01A0
0360
0240
04C0
0CC0
1FE0
3180
3180
2180
6180
C1C0
ENDCHAR
STARTCHAR Atilde
ENCODING 195
SWIDTH 615 0
DWIDTH 10 0
BBX 13 15 -1 0
BITMAP
00C8
0130
0000
0060
01A0
0360
0240
04C0
0CC0
1FE0
3180
3180
2180
6180
C1C0
ENDCHAR
STARTCHAR Adieresis
ENCODING 196
SWIDTH 615 0
DWIDTH 10 0
BBX 13 15 -1 0
BITMAP
0198
0198
0000
0060
01A0
0360
0240
04C0
0CC0
1FE0
3180
3180
2180
61C0
C1C0
ENDCHAR
STARTCHAR Aring
ENCODING 197
SWIDTH 615 0
DWIDTH 10 0
BBX 12 16 -1 0
BITMAP
0070
00D0
0090
0090
0060
01E0
0360
0640
04C0
0CC0
3FE0
1180
3180
2180
6180
C1C0
ENDCHAR
STARTCHAR AE
ENCODING 198
SWIDTH 878 0
DWIDTH 14 0
BBX 16 12 -1 0
BITMAP
00FF
01B1
0361
0267
0446
0C40
1FF8
30E0
30C0
2084
60DC
C070
ENDCHAR
STARTCHAR Ccedilla
ENCODING 199
SWIDTH 533 0
DWIDTH 9 0
BBX 9 16 1 -4
BITMAP
0700
1980
3180
6380
6700
C200
C000
C000
C000
C000
C400
7800
2000
2000
6000
4000
ENDCHAR
STARTCHAR Egrave
ENCODING 200
SWIDTH 509 0
DWIDTH 8 0
BBX 8 16 1 0
BITMAP
04
0C
06
02
0F
39
61
67
66
60
38
60
C0
C4
CC
78
ENDCHAR
STARTCHAR Eacute
ENCODING 201
SWIDTH 509 0
DWIDTH 8 0
BBX 9 15 1 0
BITMAP
0180
0300
0400
0F00
3900
6100
6700
6600
6000
3800
6000
C000
C400
CC00
7800
ENDCHAR
STARTCHAR Ecircumflex
ENCODING 202
SWIDTH 509 0
DWIDTH 8 0
BBX 9 15 1 0
BITMAP
0300
0D00
1980
0F00
3900
6100
6700
6600
6000
3800
6000
C000
C400
CC00
7800
ENDCHAR
STARTCHAR Edieresis
ENCODING 203
SWIDTH 509 0
DWIDTH 8 0
BBX 9 15 1 0
BITMAP
1D80
1D80
0000
0F00
3900
6100
6700
6600
6000
3800
6000
C000
C400
CC00
7800
ENDCHAR
STARTCHAR Igrave
ENCODING 204
SWIDTH 327 0
DWIDTH 5 0
BBX 6 16 0 0
BITMAP
08
18
18
04
38
0C
08
18
18
18
10
30
30
60
40
80
ENDCHAR
STARTCHAR Iacute
ENCODING 205
SWIDTH 327 0
DWIDTH 5 0
BBX 7 15 0 0
BITMAP
02
06
08
38
0C
08
18
18
18
10
30
30
60
40
80
ENDCHAR
STARTCHAR Icircumflex
ENCODING 206
SWIDTH 327 0
DWIDTH 5 0
BBX 8 15 0 0
BITMAP
06
1E
33
38
0C
08
18
18
18
10
30
30
60
40
80
ENDCHAR
STARTCHAR Idieresis
ENCODING 207
SWIDTH 327 0
DWIDTH 5 0
BBX 8 15 0 0
BITMAP
3B
33
00
38
0C
08
18
18
18
10
30
30
60
40
80
ENDCHAR
STARTCHAR Eth
ENCODING 208
SWIDTH 630 0
DWIDTH 10 0
BBX 10 12 0 0
BITMAP
3F00
7080
08C0
1840
18C0
FEC0
30C0
6180
6180
6300
4E00
7800
ENDCHAR
STARTCHAR Ntilde
ENCODING 209
SWIDTH 708 0
DWIDTH 11 0
BBX 13 15 0 0
BITMAP
00C8
0170
0000
0630
0E30
1E30
1630
3630
2620
6660
6640
4680
4380
C380
C100
ENDCHAR
STARTCHAR Ograve
ENCODING 210
SWIDTH 655 0
DWIDTH 10 0
BBX 10 16 1 0
BITMAP
0200
0200
0300
0080
0780
1880
30C0
30C0
60C0
4080
C180
C180
C300
C600
CC00
7800
ENDCHAR
STARTCHAR Oacute
ENCODING 211
SWIDTH 655 0
DWIDTH 10 0
BBX 10 15 1 0
BITMAP
00C0
0080
0100
0780
1880
30C0
30C0
60C0
4080
C180
C180
C300
C600
CC00
7800
ENDCHAR
STARTCHAR Ocircumflex
ENCODING 212
SWIDTH 655 0
DWIDTH 10 0
BBX 10 15 1 0
BITMAP
0180
03C0
0440
0780
1880
30C0
30C0
60C0
4080
C180
C180
C300
C600
CC00
7800
ENDCHAR
STARTCHAR Otilde
ENCODING 213
SWIDTH 655 0
DWIDTH 10 0
BBX 11 15 1 0
BITMAP
0320
05C0
0000
0780
1880
30C0
30C0
60C0
4080
C180
C180
C300
C600
CC00
7800
ENDCHAR
STARTCHAR Odieresis
ENCODING 214
SWIDTH 655 0
DWIDTH 10 0
BBX 11 15 1 0
BITMAP
0660
06E0
0000
0780
1880
30C0
30C0
60C0
4080
C180
C180
C300
C600
CC00
7800
ENDCHAR
STARTCHAR multiply
ENCODING 215
SWIDTH 573 0
DWIDTH 9 0
BBX 6 6 2 2
BITMAP
84
48
30
30
48
84
ENDCHAR
STARTCHAR Oslash
ENCODING 216
SWIDTH 655 0
DWIDTH 10 0
BBX 11 15 1 -1
BITMAP
0060
00C0
0780
0DC0
1940
3240
26C0
64C0
68C0
4980
D180
5300
6600
7800
C000
ENDCHAR
STARTCHAR Ugrave
ENCODING 217
SWIDTH 624 0
DWIDTH 10 0
BBX 11 16 0 0
BITMAP
0200
0300
0300
0080
1820
0860
18C0
18C0
31C0
3180
6380
6380
6500
C700
CB00
71C0
ENDCHAR
STARTCHAR Uacute
ENCODING 218
SWIDTH 624 0
DWIDTH 10 0
BBX 11 15 0 0
BITMAP
00C0
00C0
0100
1820
0860
18C0
18C0
31C0
3180
6380
6380
6500
C700
CB00
71C0
ENDCHAR
STARTCHAR Ucircumflex
ENCODING 219
SWIDTH 624 0
DWIDTH 10 0
BBX 11 15 0 0
BITMAP
0180
03C0
0440
1820
0860
18C0
18C0
31C0
3180
6380
6380
6500
C700
CB00
71C0
ENDCHAR
STARTCHAR Udieresis
ENCODING 220
SWIDTH 624 0
DWIDTH 10 0
BBX 11 15 0 0
BITMAP
0660
06E0
0000
1820
0860
18C0
18C0
31C0
3180
6380
6380
6500
C700
CB00
71C0
ENDCHAR
STARTCHAR Yacute
ENCODING 221
SWIDTH 580 0
DWIDTH 9 0
BBX 11 20 0 -4
BITMAP
00C0
00C0
0180
0000
1860
1860
18C0
18C0
3180
3180
6380
6300
4500
C700
CA00
7600
0C00
0800
1000
6000
ENDCHAR
STARTCHAR Thorn
ENCODING 222
SWIDTH 527 0
DWIDTH 8 0
BBX 10 12 -1 0
BITMAP
3C00
0C00
0C00
0F00
0880
18C0
1880
1380
3E00
2000
6000
C000
ENDCHAR
STARTCHAR germandbls
ENCODING 223
SWIDTH 520 0
DWIDTH 8 0
BBX 10 15 -1 -2
BITMAP
0380
0480
0CC0
0880
1980
1B00
1200
3600
3200
3300
2980
6980
6F00
4000
C000
ENDCHAR
STARTCHAR agrave
ENCODING 224
SWIDTH 541 0
DWIDTH 9 0
BBX 8 12 1 0
BITMAP
08
18
08
04
1B
66
46
C4
8C
8C
9C
EE
ENDCHAR
STARTCHAR aacute
ENCODING 225
SWIDTH 541 0
DWIDTH 9 0
BBX 8 13 1 0
BITMAP
06
06
0C
18
00
1B
66
46
C4
8C
8C
9C
EE
ENDCHAR
STARTCHAR acircumflex
ENCODING 226
SWIDTH 541 0
DWIDTH 9 0
BBX 8 12 1 0
BITMAP
06
0A
33
00
1B
66
46
C4
8C
8C
9C
EE
ENDCHAR
STARTCHAR atilde
ENCODING 227
SWIDTH 541 0
DWIDTH 9 0
BBX 8 12 1 0
BITMAP
1D
26
00
00
1B
66
46
C4
8C
8C
9C
EE
ENDCHAR
STARTCHAR adieresis
ENCODING 228
SWIDTH 541 0
DWIDTH 9 0
BBX 8 12 1 0
BITMAP
3B
33
00
00
1B
66
46
C4
8C
8C
9C
EE
ENDCHAR
STARTCHAR aring
ENCODING 229
SWIDTH 541 0
DWIDTH 9 0
BBX 8 12 1 0
BITMAP
0E
12
1E
00
1B
66
46
C4
8C
8C
9C
EE
ENDCHAR
STARTCHAR ae
ENCODING 230
SWIDTH 769 0
DWIDTH 12 0
BBX 11 8 1 0
BITMAP
1BE0
6760
4660
C4C0
8F80
8C00
9440
E780
ENDCHAR
STARTCHAR ccedilla
ENCODING 231
SWIDTH 465 0
DWIDTH 7 0
BBX 6 12 1 -4
BITMAP
3C
64
C4
CC
80
80
88
F0
20
60
E0
40
ENDCHAR
STARTCHAR egrave
ENCODING 232
SWIDTH 471 0
DWIDTH 8 0
BBX 6 12 1 0
BITMAP
18
18
18
00
1C
64
44
CC
F8
80
C8
78
ENDCHAR
STARTCHAR eacute
ENCODING 233
SWIDTH 471 0
DWIDTH 8 0
BBX 6 13 1 0
BITMAP
04
0C
0C
10
00
1C
64
44
CC
F8
80
C8
78
ENDCHAR
STARTCHAR ecircumflex
ENCODING 234
SWIDTH 471 0
DWIDTH 8 0
BBX 7 12 1 0
BITMAP
0C
1C
66
00
1C
64
44
CC
F8
80
C8
78
ENDCHAR
STARTCHAR edieresis
ENCODING 235
SWIDTH 471 0
DWIDTH 8 0
BBX 8 12 1 0
BITMAP
37
36
00
00
1C
64
4C
CC
F0
80
C8
78
ENDCHAR
STARTCHAR igrave
ENCODING 236
SWIDTH 286 0
DWIDTH 5 0
BBX 4 12 0 0
BITMAP
30
30
10
00
30
30
30
20
60
40
E0
60
ENDCHAR
STARTCHAR iacute
ENCODING 237
SWIDTH 286 0
DWIDTH 5 0
BBX 6 13 0 0
BITMAP
08
0C
18
30
00
30
30
30
20
60
40
E0
60
ENDCHAR
STARTCHAR icircumflex
ENCODING 238
SWIDTH 286 0
DWIDTH 5 0
BBX 6 12 0 0
BITMAP
0C
3C
64
00
30
30
30
20
60
40
E0
60
ENDCHAR
STARTCHAR idieresis
ENCODING 239
SWIDTH 286 0
DWIDTH 5 0
BBX 7 12 0 0
BITMAP
66
6E
00
00
30
30
30
20
60
40
E0
60
ENDCHAR
STARTCHAR eth
ENCODING 240
SWIDTH 524 0
DWIDTH 8 0
BBX 9 13 1 0
BITMAP
0400
0300
0780
0A00
0200
1E00
6600
4600
C600
8C00
8C00
9800
F000
ENDCHAR
STARTCHAR ntilde
ENCODING 241
SWIDTH 561 0
DWIDTH 9 0
BBX 9 12 0 0
BITMAP
0E80
1300
0000
0000
3300
3500
3B00
3300
6600
4600
C600
C700
ENDCHAR
STARTCHAR ograve
ENCODING 242
SWIDTH 514 0
DWIDTH 8 0
BBX 7 12 1 0
BITMAP
08
08
0C
00
3C
66
C6
C6
CC
8C
98
F0
ENDCHAR
STARTCHAR oacute
ENCODING 243
SWIDTH 514 0
DWIDTH 8 0
BBX 7 13 1 0
BITMAP
02
06
04
18
00
3C
66
C6
C6
CC
8C
98
F0
ENDCHAR
STARTCHAR ocircumflex
ENCODING 244
SWIDTH 514 0
DWIDTH 8 0
BBX 8 12 1 0
BITMAP
06
0A
33
00
3C
66
C6
C6
CC
8C
98
F0
ENDCHAR
STARTCHAR otilde
ENCODING 245
SWIDTH 514 0
DWIDTH 8 0
BBX 8 12 1 0
BITMAP
1D
26
00
00
3C
66
C6
C6
CC
8C
98
F0
ENDCHAR
STARTCHAR odieresis
ENCODING 246
SWIDTH 514 0
DWIDTH 8 0
BBX 8 12 1 0
BITMAP
3B
3B
00
00
3C
66
C6
C6
CC
8C
98
F0
ENDCHAR
STARTCHAR divide
ENCODING 247
SWIDTH 617 0
DWIDTH 10 0
BBX 8 8 1 1
BITMAP
18
08
00
FF
00
00
18
18
ENDCHAR
STARTCHAR oslash
ENCODING 248
SWIDTH 514 0
DWIDTH 8 0
BBX 7 12 1 -2
BITMAP
02
06
3C
6C
CE
D6
AC
AC
D8
F0
80
80
ENDCHAR
STARTCHAR ugrave
ENCODING 249
SWIDTH 553 0
DWIDTH 9 0
BBX 9 12 0 0
BITMAP
0600
0600
0200
0000
3180
3100
3300
6600
6600
4E00
D700
6700
ENDCHAR
STARTCHAR uacute
ENCODING 250
SWIDTH 553 0
DWIDTH 9 0
BBX 9 13 0 0
BITMAP
0100
0300
0300
0400
0000
3180
3100
3300
6700
6600
6E00
D600
6700
ENDCHAR
STARTCHAR ucircumflex
ENCODING 251
SWIDTH 553 0
DWIDTH 9 0
BBX 9 12 0 0
BITMAP
0300
0780
0980
0000
3180
3100
3300
6700
6600
6E00
D600
6700
ENDCHAR
STARTCHAR udieresis
ENCODING 252
SWIDTH 553 0
DWIDTH 9 0
BBX 10 12 0 0
BITMAP
0DC0
0DC0
0000
0000
3180
3100
3300
6700
6600
6E00
D600
6700
ENDCHAR
STARTCHAR yacute
ENCODING 253
SWIDTH 549 0
DWIDTH 9 0
BBX 9 18 0 -5
BITMAP
0300
0300
0600
0C00
0000
3180
3180
3300
2300
6700
6A00
D600
6400
0C00
0800
1800
3000
6000
ENDCHAR
STARTCHAR thorn
ENCODING 254
SWIDTH 552 0
DWIDTH 9 0
BBX 9 18 -1 -4
BITMAP
0400
0400
0400
0C00
0C00
0800
1B80
1D80
1980
3180
3180
3300
7600
7C00
6000
C000
C000
8000
ENDCHAR
STARTCHAR ydieresis
ENCODING 255
SWIDTH 549 0
DWIDTH 9 0
BBX 9 17 0 -5
BITMAP
1D80
1D80
0000
0000
3180
3180
3300
2300
6700
6A00
D600
6400
0C00
0800
1800
3000
6000
ENDCHAR
STARTCHAR Amacron
ENCODING 256
SWIDTH 615 0
DWIDTH 10 0
BBX 13 14 -1 0
BITMAP
01F8
0000
0060
01A0
0360
0240
04C0
0CC0
1FE0
3180
3180
2180
6180
C1C0
ENDCHAR
STARTCHAR amacron
ENCODING 257
SWIDTH 543 0
DWIDTH 9 0
BBX 8 10 1 0
BITMAP
3F
00
1B
66
46
C4
8C
8C
9C
EE
ENDCHAR
STARTCHAR Abreve
ENCODING 258
SWIDTH 615 0
DWIDTH 10 0
BBX 13 16 -1 0
BITMAP
0088
00C8
00F0
0000
0060
01A0
0360
0240
04C0
0CC0
1FE0
3180
3180
2180
61C0
C1C0
ENDCHAR
STARTCHAR abreve
ENCODING 259
SWIDTH 543 0
DWIDTH 9 0
BBX 8 12 1 0
BITMAP
11
1B
0C
00
1B
66
46
C4
8C
8C
9C
EE
ENDCHAR
STARTCHAR Aogonek
ENCODING 260
SWIDTH 615 0
DWIDTH 10 0
BBX 11 16 -1 -4
BITMAP
0060
01A0
0360
0240
04C0
0CC0
1FE0
3180
3180
2180
61C0
C1C0
0180
0300
0200
0380
ENDCHAR
STARTCHAR aogonek
ENCODING 261
SWIDTH 541 0
DWIDTH 9 0
BBX 8 12 1 -4
BITMAP
1B
66
46
C4
8C
8C
9C
EE
0C
08
18
1C
ENDCHAR
STARTCHAR Cacute
ENCODING 262
SWIDTH 533 0
DWIDTH 9 0
BBX 10 15 1 0
BITMAP
00C0
0180
0100
0700
1980
3180
6300
6700
C200
C000
C000
C000
C000
C400
7800
ENDCHAR
STARTCHAR cacute
ENCODING 263
SWIDTH 468 0
DWIDTH 8 0
BBX 8 13 1 0
BITMAP
02
03
06
0C
00
1C
64
C4
CC
80
80
88
F0
ENDCHAR
STARTCHAR Ccircumflex
ENCODING 264
SWIDTH 533 0
DWIDTH 9 0
BBX 10 15 1 0
BITMAP
0180
0280
0440
0700
1980
3180
6300
6700
C200
C000
C000
C000
C000
C400
7800
ENDCHAR
STARTCHAR ccircumflex
ENCODING 265
SWIDTH 468 0
DWIDTH 8 0
BBX 8 12 1 0
BITMAP
06
0A
33
00
1C
64
C4
CC
80
80
88
F0
ENDCHAR
STARTCHAR Cdotaccent
ENCODING 266
SWIDTH 533 0
DWIDTH 9 0
BBX 9 16 1 0
BITMAP
0200
0300
0300
0000
0700
1980
3180
6300
6700
C200
C000
C000
C000
C000
C400
7800
ENDCHAR
STARTCHAR cdotaccent
ENCODING 267
SWIDTH 468 0
DWIDTH 8 0
BBX 6 12 1 0
BITMAP
0C
0C
00
00
1C
64
C4
CC
80
80
88
F0
ENDCHAR
STARTCHAR Ccaron
ENCODING 268
SWIDTH 533 0
DWIDTH 9 0
BBX 10 16 1 0
BITMAP
0040
0640
0380
0000
0700
1980
3180
6300
6700
C200
C000
C000
C000
C000
C400
7800
ENDCHAR
STARTCHAR ccaron
ENCODING 269
SWIDTH 468 0
DWIDTH 8 0
BBX 9 12 1 0
BITMAP
1880
0B00
0C00
0000
1C00
6400
C400
CC00
8000
8000
8800
F000
ENDCHAR
STARTCHAR Dcaron
ENCODING 270
SWIDTH 630 0
DWIDTH 10 0
BBX 10 16 1 0
BITMAP
0040
0EC0
0700
0000
7E00
6180
1980
3080
3080
6180
6180
C300
C300
C600
9C00
F000
ENDCHAR
STARTCHAR dcaron
ENCODING 271
SWIDTH 557 0
DWIDTH 9 0
BBX 12 13 1 0
BITMAP
00B0
01B0
01B0
0160
0300
1F00
2600
4600
C600
CC00
8C00
9D00
E600
ENDCHAR
STARTCHAR Dcroat
ENCODING 272
SWIDTH 630 0
DWIDTH 10 0
BBX 10 12 0 0
BITMAP
3F00
7080
08C0
1840
30C0
FEC0
30C0
6180
6180
6300
4E00
7800
ENDCHAR
STARTCHAR dcroat
ENCODING 273
SWIDTH 557 0
DWIDTH 9 0
BBX 10 13 1 0
BITMAP
0080
0180
0FC0
0100
0300
1F00
2600
4600
C600
CC00
8C00
9D00
E600
ENDCHAR
STARTCHAR Emacron
ENCODING 274
SWIDTH 509 0
DWIDTH 8 0
BBX 9 14 1 0
BITMAP
1F80
0000
0F00
3900
6100
6700
6600
6000
3800
6000
C000
C400
CC00
7800
ENDCHAR
STARTCHAR emacron
ENCODING 275
SWIDTH 471 0
DWIDTH 8 0
BBX 7 10 1 0
BITMAP
3E
00
1C
64
44
CC
F8
80
C8
78
ENDCHAR
STARTCHAR Ebreve
ENCODING 276
SWIDTH 509 0
DWIDTH 8 0
BBX 9 16 1 0
BITMAP
0480
0C80
0700
0000
0F00
3900
6100
6700
6600
6000
3800
6000
C000
C400
CC00
7800
ENDCHAR
STARTCHAR ebreve
ENCODING 277
SWIDTH 471 0
DWIDTH 8 0
BBX 7 12 1 0
BITMAP
12
32
1C
00
1C
64
44
CC
F8
80
C8
78
ENDCHAR
STARTCHAR Edotaccent
ENCODING 278
SWIDTH 509 0
DWIDTH 8 0
BBX 8 16 1 0
BITMAP
04
06
04
00
0F
39
61
67
66
60
38
60
C0
C4
CC
78
ENDCHAR
STARTCHAR edotaccent
ENCODING 279
SWIDTH 471 0
DWIDTH 8 0
BBX 6 12 1 0
BITMAP
0C
1C
00
00
1C
64
44
CC
F8
80
C8
78
ENDCHAR
STARTCHAR Eogonek
ENCODING 280
SWIDTH 509 0
DWIDTH 8 0
BBX 8 16 1 -4
BITMAP
0F
39
61
67
66
60
38
60
C0
C4
CC
78
20
60
40
70
ENDCHAR
STARTCHAR eogonek
ENCODING 281
SWIDTH 471 0
DWIDTH 8 0
BBX 6 12 1 -4
BITMAP
1C
64
44
CC
F8
80
C8
78
30
60
60
70
ENDCHAR
STARTCHAR Ecaron
ENCODING 282
SWIDTH 509 0
DWIDTH 8 0
BBX 9 16 1 0
BITMAP
0080
0D80
0700
0000
0F00
3900
6100
6700
6600
6000
3800
6000
C000
C400
CC00
7800
ENDCHAR
STARTCHAR ecaron
ENCODING 283
SWIDTH 471 0
DWIDTH 8 0
BBX 8 12 1 0
BITMAP
11
1A
1C
00
1C
64
44
CC
F8
80
C8
78
ENDCHAR
STARTCHAR Gcircumflex
ENCODING 284
SWIDTH 598 0
DWIDTH 10 0
BBX 10 15 1 0
BITMAP
0180
0280
0440
0700
1980
3180
6180
6700
C200
C000
CF00
C700
C400
CC00
7800
ENDCHAR
STARTCHAR gcircumflex
ENCODING 285
SWIDTH 526 0
DWIDTH 8 0
BBX 8 16 1 -4
BITMAP
06
0A
33
00
1F
66
46
C6
CC
8C
9C
E8
18
10
30
E0
ENDCHAR
STARTCHAR Gbreve
ENCODING 286
SWIDTH 598 0
DWIDTH 10 0
BBX 10 16 1 0
BITMAP
0240
0640
0380
0000
0700
1980
3180
6180
6700
C200
C000
CF00
C700
C400
CC00
7800
ENDCHAR
STARTCHAR gbreve
ENCODING 287
SWIDTH 526 0
DWIDTH 8 0
BBX 8 16 1 -4
BITMAP
11
19
0E
00
1F
66
46
C6
CC
8C
9C
E8
18
10
30
E0
ENDCHAR
STARTCHAR Gdotaccent
ENCODING 288
SWIDTH 598 0
DWIDTH 10 0
BBX 9 16 1 0
BITMAP
0200
0300
0300
0000
0700
1980
3180
6180
6700
C200
C000
CF00
C700
C400
CC00
7800
ENDCHAR
STARTCHAR gdotaccent
ENCODING 289
SWIDTH 526 0
DWIDTH 8 0
BBX 8 16 1 -4
BITMAP
0E
0C
00
00
1F
66
46
C6
CC
8C
9C
E8
18
10
30
E0
ENDCHAR
STARTCHAR Gcommaaccent
ENCODING 290
SWIDTH 598 0
DWIDTH 10 0
BBX 9 16 1 -4
BITMAP
0700
1980
3180
6180
6700
C200
C000
CF00
C700
C400
CC00
7800
0000
6000
4000
C000
ENDCHAR
STARTCHAR gcommaaccent
ENCODING 291
SWIDTH 526 0
DWIDTH 8 0
BBX 8 16 1 -4
BITMAP
06
0C
0C
00
1F
66
46
C6
CC
8C
9C
E8
18
10
30
E0
ENDCHAR
STARTCHAR Hcircumflex
ENCODING 292
SWIDTH 668 0
DWIDTH 11 0
BBX 12 15 -1 0
BITMAP
00C0
01E0
0220
3C10
0430
0C30
0C30
0C60
0FF0
3860
18C0
30C0
3080
6180
C0E0
ENDCHAR
STARTCHAR hcircumflex
ENCODING 293
SWIDTH 555 0
DWIDTH 9 0
BBX 8 15 0 0
BITMAP
0C
1E
32
08
18
18
18
17
3B
2B
33
66
46
C6
C7
ENDCHAR
STARTCHAR Hbar
ENCODING 294
SWIDTH 668 0
DWIDTH 11 0
BBX 13 12 -1 0
BITMAP
3C10
0430
0C30
3FF8
0C20
0FF0
3840
18C0
30C0
3080
6180
C0E0
ENDCHAR
STARTCHAR hbar
ENCODING 295
SWIDTH 555 0
DWIDTH 9 0
BBX 8 13 0 0
BITMAP
08
08
3E
18
18
17
3B
2B
33
66
46
C6
C7
ENDCHAR
STARTCHAR Itilde
ENCODING 296
SWIDTH 327 0
DWIDTH 5 0
BBX 8 15 0 0
BITMAP
1D
26
00
38
0C
08
18
18
18
10
30
30
60
40
80
ENDCHAR
STARTCHAR itilde
ENCODING 297
SWIDTH 286 0
DWIDTH 5 0
BBX 7 12 0 0
BITMAP
32
5C
00
00
30
30
30
20
60
40
E0
60
ENDCHAR
STARTCHAR Imacron
ENCODING 298
SWIDTH 327 0
DWIDTH 5 0
BBX 8 14 0 0
BITMAP
3F
00
38
0C
08
18
18
18
10
30
30
60
40
80
ENDCHAR
STARTCHAR imacron
ENCODING 299
SWIDTH 286 0
DWIDTH 5 0
BBX 6 10 0 0
BITMAP
7C
00
30
30
30
20
60
40
E0
60
ENDCHAR
STARTCHAR Ibreve
ENCODING 300
SWIDTH 327 0
DWIDTH 5 0
BBX 8 16 0 0
BITMAP
11
11
1E
00
38
0C
08
18
18
18
10
30
30
60
40
80
ENDCHAR
STARTCHAR ibreve
ENCODING 301
SWIDTH 286 0
DWIDTH 5 0
BBX 7 12 0 0
BITMAP
22
24
38
00
30
30
30
20
60
40
E0
60
ENDCHAR
STARTCHAR Iogonek
ENCODING 302
SWIDTH 327 0
DWIDTH 5 0
BBX 8 16 -2 -4
BITMAP
0E
03
02
06
06
06
04
0C
0C
18
18
30
60
C0
80
E0
ENDCHAR
STARTCHAR iogonek
ENCODING 303
SWIDTH 297 0
DWIDTH 5 0
BBX 5 16 0 -4
BITMAP
18
18
00
00
30
30
30
20
60
60
40
70
60
C0
A0
C0
ENDCHAR
STARTCHAR Idotaccent
ENCODING 304
SWIDTH 327 0
DWIDTH 5 0
BBX 6 16 0 0
BITMAP
08
1C
08
00
38
0C
08
18
18
18
10
30
30
60
40
80
ENDCHAR
STARTCHAR dotlessi
ENCODING 305
SWIDTH 286 0
DWIDTH 5 0
BBX 4 8 0 0
BITMAP
30
30
30
20
60
40
E0
60
ENDCHAR
STARTCHAR IJ
ENCODING 306
SWIDTH 720 0
DWIDTH 12 0
BBX 12 16 0 -4
BITMAP
38F0
0FB0
0930
1830
1860
1860
1060
30C0
30C0
6080
4180
8300
0300
0600
0C00
3800
ENDCHAR
STARTCHAR ij
ENCODING 307
SWIDTH 567 0
DWIDTH 9 0
BBX 9 16 0 -4
BITMAP
1980
1980
0000
0000
3300
3100
3300
2300
6300
4200
E600
6600
0C00
0800
1800
3000
ENDCHAR
STARTCHAR Jcircumflex
ENCODING 308
SWIDTH 393 0
DWIDTH 6 0
BBX 11 20 -3 -4
BITMAP
0040
00E0
0320
0000
0780
0CC0
08C0
0080
0180
0180
0180
0300
0300
0600
0600
0C00
0C00
1800
3000
E000
ENDCHAR
STARTCHAR jcircumflex
ENCODING 309
SWIDTH 282 0
DWIDTH 5 0
BBX 9 16 -3 -4
BITMAP
0300
0780
1980
0000
0600
0600
0600
0400
0C00
0C00
0800
1800
1800
3000
2000
C000
ENDCHAR
STARTCHAR Kcommaaccent
ENCODING 310
SWIDTH 616 0
DWIDTH 10 0
BBX 11 16 -1 -4
BITMAP
3C60
0C20
0C60
0C60
08C0
1900
1E00
1E00
3300
3300
6180
C0E0
0000
1800
0800
1000
ENDCHAR
STARTCHAR kcommaaccent
ENCODING 311
SWIDTH 497 0
DWIDTH 8 0
BBX 8 17 0 -4
BITMAP
08
08
18
18
10
13
33
26
2C
70
58
CD
CE
00
60
20
40
ENDCHAR
STARTCHAR kgreenlandic
ENCODING 312
SWIDTH 497 0
DWIDTH 8 0
BBX 8 8 0 0
BITMAP
33
33
33
2E
70
78
CC
C7
ENDCHAR
STARTCHAR Lacute
ENCODING 313
SWIDTH 517 0
DWIDTH 8 0
BBX 10 15 0 0
BITMAP
00C0
0180
0100
0700
0C80
0880
1980
1300
3600
3000
6000
6000
4000
FE00
F600
ENDCHAR
STARTCHAR lacute
ENCODING 314
SWIDTH 279 0
DWIDTH 4 0
BBX 7 15 0 0
BITMAP
02
06
08
18
18
18
10
30
30
20
60
60
40
C0
70
ENDCHAR
STARTCHAR Lcommaaccent
ENCODING 315
SWIDTH 517 0
DWIDTH 8 0
BBX 9 16 0 -4
BITMAP
0700
0C80
0880
1980
1300
3600
3000
6000
6000
4000
FE00
F600
0000
6000
6000
C000
ENDCHAR
STARTCHAR lcommaaccent
ENCODING 316
SWIDTH 279 0
DWIDTH 4 0
BBX 5 17 0 -4
BITMAP
18
18
18
18
10
30
30
20
60
60
40
50
60
00
C0
40
80
ENDCHAR
STARTCHAR Lcaron
ENCODING 317
SWIDTH 517 0
DWIDTH 8 0
BBX 12 15 0 0
BITMAP
0030
0030
0030
0760
0C80
0880
1980
1300
3600
3000
6000
6000
4000
FE00
F600
ENDCHAR
STARTCHAR lcaron
ENCODING 318
SWIDTH 467 0
DWIDTH 7 0
BBX 8 13 1 0
BITMAP
33
33
32
36
20
60
60
40
C0
C0
80
A0
C0
ENDCHAR
STARTCHAR Ldot
ENCODING 319
SWIDTH 668 0
DWIDTH 11 0
BBX 11 12 0 0
BITMAP
0700
0C80
0880
1980
1300
3600
3060
6060
6000
4000
FE00
F600
ENDCHAR
STARTCHAR ldot
ENCODING 320
SWIDTH 489 0
DWIDTH 8 0
BBX 7 13 1 0
BITMAP
30
30
30
30
20
60
64
4E
CC
C0
80
A0
C0
ENDCHAR
STARTCHAR Lslash
ENCODING 321
SWIDTH 517 0
DWIDTH 8 0
BBX 9 12 0 0
BITMAP
0700
0C80
0880
1980
1B80
3700
3200
FC00
6000
4000
DE00
F600
ENDCHAR
STARTCHAR lslash
ENCODING 322
SWIDTH 279 0
DWIDTH 4 0
BBX 7 13 0 0
BITMAP
30
1E
18
18
10
30
30
20
60
60
40
C0
70
ENDCHAR
STARTCHAR Nacute
ENCODING 323
SWIDTH 708 0
DWIDTH 11 0
BBX 12 15 0 0
BITMAP
0030
0020
0040
0630
0E30
1E30
1630
3630
2620
6660
6640
4680
4380
C380
C100
ENDCHAR
STARTCHAR nacute
ENCODING 324
SWIDTH 561 0
DWIDTH 9 0
BBX 8 13 0 0
BITMAP
01
01
03
06
00
33
35
3B
33
66
46
C6
C7
ENDCHAR
STARTCHAR Ncommaaccent
ENCODING 325
SWIDTH 708 0
DWIDTH 11 0
BBX 12 16 0 -4
BITMAP
0630
0E30
1E30
1630
3630
2620
6660
6640
4680
4380
C380
C100
0000
0C00
0C00
1800
ENDCHAR
STARTCHAR ncommaaccent
ENCODING 326
SWIDTH 561 0
DWIDTH 9 0
BBX 8 12 0 -4
BITMAP
33
35
3B
33
66
46
C6
C7
00
30
20
40
ENDCHAR
STARTCHAR Ncaron
ENCODING 327
SWIDTH 708 0
DWIDTH 11 0
BBX 13 16 0 0
BITMAP
0008
01D8
00E0
0000
0630
0E30
1E30
1630
3630
2620
6660
6640
4680
4380
C380
C100
ENDCHAR
STARTCHAR ncaron
ENCODING 328
SWIDTH 561 0
DWIDTH 9 0
BBX 10 12 0 0
BITMAP
0C40
0580
0600
0000
3300
3500
3B00
3300
6600
4600
C600
C700
ENDCHAR
STARTCHAR Eng
ENCODING 330
SWIDTH 698 0
DWIDTH 11 0
BBX 12 16 0 -4
BITMAP
0630
0E30
1430
1430
2430
2620
6620
4660
4640
C3C0
C380
8100
0300
0600
0C00
3800
ENDCHAR
STARTCHAR eng
ENCODING 331
SWIDTH 561 0
DWIDTH 9 0
BBX 8 12 0 -4
BITMAP
33
35
3B
33
63
46
C6
CC
0C
18
30
60
ENDCHAR
STARTCHAR Omacron
ENCODING 332
SWIDTH 655 0
DWIDTH 10 0
BBX 10 14 1 0
BITMAP
07C0
0000
0780
1880
30C0
30C0
60C0
4080
C180
C180
C300
C600
CC00
7800
ENDCHAR
STARTCHAR omacron
ENCODING 333
SWIDTH 514 0
DWIDTH 8 0
BBX 8 10 1 0
BITMAP
3F
00
3C
66
C6
C6
CC
8C
98
F0
ENDCHAR
STARTCHAR Obreve
ENCODING 334
SWIDTH 655 0
DWIDTH 10 0
BBX 11 16 1 0
BITMAP
0220
0240
0380
0000
0780
1880
30C0
30C0
60C0
4080
C180
C180
C300
C600
CC00
7800
ENDCHAR
STARTCHAR obreve
ENCODING 335
SWIDTH 514 0
DWIDTH 8 0
BBX 8 12 1 0
BITMAP
11
19
0E
00
3C
66
C6
C6
CC
8C
98
F0
ENDCHAR
STARTCHAR Ohungarumlaut
ENCODING 336
SWIDTH 655 0
DWIDTH 10 0
BBX 11 15 1 0
BITMAP
0160
0240
0480
0780
1880
30C0
30C0
60C0
4080
C180
C180
C300
C600
CC00
7800
ENDCHAR
STARTCHAR ohungarumlaut
ENCODING 337
SWIDTH 514 0
DWIDTH 8 0
BBX 8 13 1 0
BITMAP
09
09
1B
34
00
3C
66
C6
C6
CC
8C
98
F0
ENDCHAR
STARTCHAR OE
ENCODING 338
SWIDTH 900 0
DWIDTH 14 0
BBX 14 12 2 0
BITMAP
0F3C
18E4
31C4
618C
6198
C180
C0E0
C180
8300
8710
CF30
79E0
ENDCHAR
STARTCHAR oe
ENCODING 339
SWIDTH 777 0
DWIDTH 12 0
BBX 12 8 1 0
BITMAP
1CE0
3730
6720
C660
C7C0
CE00
DE20
73C0
ENDCHAR
STARTCHAR Racute
ENCODING 340
SWIDTH 623 0
DWIDTH 10 0
BBX 10 15 0 0
BITMAP
00C0
0180
0200
1F00
30C0
08C0
18C0
18C0
1180
3F00
3C00
6600
6600
C300
81C0
ENDCHAR
STARTCHAR racute
ENCODING 341
SWIDTH 407 0
DWIDTH 7 0
BBX 7 13 0 0
BITMAP
02
02
06
0C
00
36
3E
28
30
60
60
C0
C0
ENDCHAR
STARTCHAR Rcommaaccent
ENCODING 342
SWIDTH 623 0
DWIDTH 10 0
BBX 10 16 0 -4
BITMAP
1F00
30C0
08C0
18C0
18C0
1180
3F00
3C00
6600
6600
C300
81C0
0000
3000
3000
6000
ENDCHAR
STARTCHAR rcommaaccent
ENCODING 343
SWIDTH 407 0
DWIDTH 7 0
BBX 8 12 -1 -4
BITMAP
1B
1F
14
18
30
30
60
60
00
60
40
80
ENDCHAR
STARTCHAR Rcaron
ENCODING 344
SWIDTH 623 0
DWIDTH 10 0
BBX 10 16 0 0
BITMAP
0040
06C0
0380
0000
1F00
30C0
08C0
18C0
18C0
1180
3F00
3C00
6600
6600
C300
81C0
ENDCHAR
STARTCHAR rcaron
ENCODING 345
SWIDTH 407 0
DWIDTH 7 0
BBX 9 12 0 0
BITMAP
1880
0B00
0C00
0000
3600
3E00
2800
3000
6000
6000
C000
C000
ENDCHAR
STARTCHAR Sacute
ENCODING 346
SWIDTH 474 0
DWIDTH 8 0
BBX 10 15 0 0
BITMAP
00C0
0180
0200
0F00
1980
3180
3180
3300
3200
3800
1800
0C00
4C00
C800
7000
ENDCHAR
STARTCHAR sacute
ENCODING 347
SWIDTH 423 0
DWIDTH 7 0
BBX 8 13 0 0
BITMAP
02
03
06
0C
00
1C
26
24
30
38
58
D8
70
ENDCHAR
STARTCHAR Scircumflex
ENCODING 348
SWIDTH 474 0
DWIDTH 8 0
BBX 10 15 0 0
BITMAP
0180
0680
0CC0
0F00
1980
3180
3180
3300
3200
3800
1800
0C00
4C00
C800
7000
ENDCHAR
STARTCHAR scircumflex
ENCODING 349
SWIDTH 423 0
DWIDTH 7 0
BBX 8 12 0 0
BITMAP
06
0E
33
00
1C
26
24
30
38
58
D8
70
ENDCHAR
STARTCHAR Scedilla
ENCODING 350
SWIDTH 474 0
DWIDTH 8 0
BBX 9 15 0 -3
BITMAP
0F00
1980
3180
3180
3300
3200
3800
1800
4C00
CC00
C800
7000
2000
3000
6000
ENDCHAR
STARTCHAR scedilla
ENCODING 351
SWIDTH 423 0
DWIDTH 7 0
BBX 7 12 0 -4
BITMAP
1C
26
24
30
38
18
D8
F0
60
20
60
C0
ENDCHAR
STARTCHAR Scaron
ENCODING 352
SWIDTH 474 0
DWIDTH 8 0
BBX 10 16 0 0
BITMAP
0040
06C0
0380
0000
0F00
1980
3180
3180
3300
3200
3800
1800
0C00
4C00
C800
7000
ENDCHAR
STARTCHAR scaron
ENCODING 353
SWIDTH 423 0
DWIDTH 7 0
BBX 9 12 0 0
BITMAP
0880
0D00
0E00
0000
1C00
2600
2400
3000
3800
5800
D800
7000
ENDCHAR
STARTCHAR Tcommaaccent
ENCODING 354
SWIDTH 471 0
DWIDTH 8 0
BBX 9 16 1 -4
BITMAP
7880
CF80
8C00
1800
1800
1800
1000
3000
3000
2000
6000
C000
0000
C000
4000
8000
ENDCHAR
STARTCHAR tcommaaccent
ENCODING 355
SWIDTH 358 0
DWIDTH 6 0
BBX 6 14 0 -4
BITMAP
18
18
7C
30
20
60
60
40
68
70
00
60
40
80
ENDCHAR
STARTCHAR Tcaron
ENCODING 356
SWIDTH 471 0
DWIDTH 8 0
BBX 10 16 1 0
BITMAP
0040
0EC0
0700
0000
7880
CF80
8C00
1800
1800
1800
1000
3000
3000
2000
6000
C000
ENDCHAR
STARTCHAR tcaron
ENCODING 357
SWIDTH 497 0
DWIDTH 8 0
BBX 9 13 1 0
BITMAP
0100
0180
0100
1A00
3000
7C00
2000
6000
6000
4000
4000
D800
7000
ENDCHAR
STARTCHAR Tbar
ENCODING 358
SWIDTH 471 0
DWIDTH 8 0
BBX 9 12 1 0
BITMAP
7880
CF80
8C00
1800
1800
FC00
3000
3000
3000
6000
6000
C000
ENDCHAR
STARTCHAR tbar
ENCODING 359
SWIDTH 358 0
DWIDTH 6 0
BBX 6 10 0 0
BITMAP
18
18
7C
30
20
FC
60
40
68
70
ENDCHAR
STARTCHAR Utilde
ENCODING 360
SWIDTH 624 0
DWIDTH 10 0
BBX 11 15 0 0
BITMAP
0320
05C0
0000
1820
0860
18C0
18C0
31C0
3180
6380
6380
6500
C700
CB00
71C0
ENDCHAR
STARTCHAR utilde
ENCODING 361
SWIDTH 553 0
DWIDTH 9 0
BBX 10 12 0 0
BITMAP
0E40
0B80
0000
0000
3180
3100
3300
6700
6600
6E00
D600
6700
ENDCHAR
STARTCHAR Umacron
ENCODING 362
SWIDTH 624 0
DWIDTH 10 0
BBX 11 14 0 0
BITMAP
07C0
0000
1820
0860
18C0
18C0
31C0
3180
6380
6380
6500
C700
CB00
71C0
ENDCHAR
STARTCHAR umacron
ENCODING 363
SWIDTH 553 0
DWIDTH 9 0
BBX 9 10 0 0
BITMAP
0F80
0000
3180
3100
3300
6700
6600
6E00
D600
6700
ENDCHAR
STARTCHAR Ubreve
ENCODING 364
SWIDTH 624 0
DWIDTH 10 0
BBX 11 16 0 0
BITMAP
0220
0240
0380
0000
1820
0860
18C0
18C0
31C0
3180
6380
6380
6500
C700
CB00
71C0
ENDCHAR
STARTCHAR ubreve
ENCODING 365
SWIDTH 553 0
DWIDTH 9 0
BBX 10 12 0 0
BITMAP
0440
0C80
0700
0000
3180
3100
3300
6700
6600
6E00
D600
6700
ENDCHAR
STARTCHAR Uring
ENCODING 366
SWIDTH 624 0
DWIDTH 10 0
BBX 11 16 0 0
BITMAP
01C0
0240
0240
02C0
1BA0
0860
18C0
18C0
31C0
3180
6380
6380
6500
C700
CB00
71C0
ENDCHAR
STARTCHAR uring
ENCODING 367
SWIDTH 553 0
DWIDTH 9 0
BBX 9 12 0 0
BITMAP
0780
0580
0700
0000
3180
3100
3300
6700
6600
6E00
D600
6700
ENDCHAR
STARTCHAR Uhungarumlaut
ENCODING 368
SWIDTH 624 0
DWIDTH 10 0
BBX 11 15 0 0
BITMAP
0160
0240
0480
1820
0860
18C0
18C0
31C0
3180
6380
6380
6500
C700
CB00
71C0
ENDCHAR
STARTCHAR uhungarumlaut
ENCODING 369
SWIDTH 553 0
DWIDTH 9 0
BBX 10 13 0 0
BITMAP
0280
06C0
0580
0B00
0000
3180
3100
3300
6700
6600
6E00
D600
6700
ENDCHAR
STARTCHAR Uogonek
ENCODING 370
SWIDTH 684 0
DWIDTH 11 0
BBX 11 16 1 -4
BITMAP
3860
18C0
18C0
3180
3180
6380
6300
4700
C700
CB00
D300
E380
0300
0600
0600
0700
ENDCHAR
STARTCHAR uogonek
ENCODING 371
SWIDTH 553 0
DWIDTH 9 0
BBX 9 12 0 -4
BITMAP
3180
3100
3300
6700
6600
6E00
D600
6700
0600
0C00
0C00
0E00
ENDCHAR
STARTCHAR Wcircumflex
ENCODING 372
SWIDTH 941 0
DWIDTH 15 0
BBX 15 15 1 0
BITMAP
0060
00A0
0110
F00E
5806
18C6
3186
3386
6704
6F0C
CB0C
D318
D310
E320
41C0
ENDCHAR
STARTCHAR wcircumflex
ENCODING 373
SWIDTH 750 0
DWIDTH 12 0
BBX 11 12 1 0
BITMAP
0300
0780
0980
0000
6060
6660
6660
4C40
DC40
9C80
ED80
C600
ENDCHAR
STARTCHAR Ycircumflex
ENCODING 374
SWIDTH 580 0
DWIDTH 9 0
BBX 11 20 0 -4
BITMAP
0080
0180
06C0
0000
1860
1860
18C0
18C0
3180
3180
6380
6300
4500
C700
CA00
7600
0C00
0800
1000
6000
ENDCHAR
STARTCHAR ycircumflex
ENCODING 375
SWIDTH 549 0
DWIDTH 9 0
BBX 9 17 0 -5
BITMAP
0300
0500
1980
0000
3180
3180
3300
2300
6700
6A00
D600
6400
0C00
0800
1800
3000
6000
ENDCHAR
STARTCHAR Ydieresis
ENCODING 376
SWIDTH 580 0
DWIDTH 9 0
BBX 11 20 0 -4
BITMAP
0440
06E0
0640
0000
1860
1860
18C0
18C0
3180
3180
6380
6300
4500
C700
CA00
7600
0C00
0800
1000
6000
ENDCHAR
STARTCHAR Zacute
ENCODING 377
SWIDTH 501 0
DWIDTH 8 0
BBX 10 15 0 0
BITMAP
0180
0100
0200
3F80
3DC0
0380
0700
0E00
0C00
1800
3000
6000
E000
DE00
FF00
ENDCHAR
STARTCHAR zacute
ENCODING 378
SWIDTH 430 0
DWIDTH 7 0
BBX 8 13 0 0
BITMAP
02
03
06
0C
00
36
1E
0C
18
30
60
F8
EC
ENDCHAR
STARTCHAR Zdotaccent
ENCODING 379
SWIDTH 501 0
DWIDTH 8 0
BBX 10 16 0 0
BITMAP
0200
0600
0600
0000
3F80
3DC0
0380
0700
0E00
0C00
1800
3000
6000
C000
DE00
FF00
ENDCHAR
STARTCHAR zdotaccent
ENCODING 380
SWIDTH 430 0
DWIDTH 7 0
BBX 7 12 0 0
BITMAP
0C
0C
00
00
36
1E
0C
18
30
60
F8
EC
ENDCHAR
STARTCHAR Zcaron
ENCODING 381
SWIDTH 501 0
DWIDTH 8 0
BBX 10 16 0 0
BITMAP
0040
0CC0
0700
0000
3F80
3DC0
0380
0700
0E00
0C00
1800
3000
6000
E000
DE00
FF00
ENDCHAR
STARTCHAR zcaron
ENCODING 382
SWIDTH 430 0
DWIDTH 7 0
BBX 9 12 0 0
BITMAP
1980
0B00
0C00
0000
3600
1E00
0C00
1800
3000
6000
F800
EC00
ENDCHAR
STARTCHAR florin
ENCODING 402
SWIDTH 466 0
DWIDTH 7 0
BBX 12 17 -3 -4
BITMAP
0070
00D0
0190
0130
0100
03C0
07C0
0E00
0600
0600
0400
0C00
0C00
0C00
4800
D800
7000
ENDCHAR
STARTCHAR AEacute
ENCODING 508
SWIDTH 878 0
DWIDTH 14 0
BBX 16 15 -1 0
BITMAP
000C
0008
0010
00FF
01B1
0361
0267
0446
0C40
1FF8
30E0
30C0
2084
60DC
C070
ENDCHAR
STARTCHAR aeacute
ENCODING 509
SWIDTH 770 0
DWIDTH 12 0
BBX 11 13 1 0
BITMAP
0100
0180
0300
0600
0000
1BE0
6760
4660
C4C0
8F80
8C00
9440
E780
ENDCHAR
STARTCHAR Scommaaccent
ENCODING 536
SWIDTH 474 0
DWIDTH 8 0
BBX 9 16 0 -4
BITMAP
0F00
1980
3180
3180
3300
3200
3800
1800
0C00
4C00
C800
7000
0000
7000
2000
4000
ENDCHAR
STARTCHAR scommaaccent
ENCODING 537
SWIDTH 423 0
DWIDTH 7 0
BBX 7 12 0 -4
BITMAP
1C
26
24
30
38
58
D8
70
00
60
60
C0
ENDCHAR
STARTCHAR dotlessj
ENCODING 567
SWIDTH 277 0
DWIDTH 4 0
BBX 7 12 -3 -4
BITMAP
06
06
06
04
0C
0C
08
18
10
30
20
C0
ENDCHAR
STARTCHAR circumflex
ENCODING 710
SWIDTH 354 0
DWIDTH 6 0
BBX 6 3 0 9
BITMAP
18
28
CC
ENDCHAR
STARTCHAR caron
ENCODING 711
SWIDTH 381 0
DWIDTH 6 0
BBX 5 3 1 9
BITMAP
88
D0
E0
ENDCHAR
STARTCHAR breve
ENCODING 728
SWIDTH 344 0
DWIDTH 6 0
BBX 5 3 1 9
BITMAP
88
90
E0
ENDCHAR
STARTCHAR dotaccent
ENCODING 729
SWIDTH 217 0
DWIDTH 3 0
BBX 2 2 1 10
BITMAP
C0
C0
ENDCHAR
STARTCHAR ring
ENCODING 730
SWIDTH 402 0
DWIDTH 6 0
BBX 4 4 2 8
BITMAP
70
D0
90
60
ENDCHAR
STARTCHAR ogonek
ENCODING 731
SWIDTH 311 0
DWIDTH 5 0
BBX 4 5 1 -4
BITMAP
10
60
C0
80
E0
ENDCHAR
STARTCHAR tilde
ENCODING 732
SWIDTH 397 0
DWIDTH 6 0
BBX 6 2 1 10
BITMAP
64
98
ENDCHAR
STARTCHAR hungarumlaut
ENCODING 733
SWIDTH 392 0
DWIDTH 6 0
BBX 6 4 0 9
BITMAP
34
34
6C
D8
ENDCHAR
STARTCHAR pi
ENCODING 960
SWIDTH 640 0
DWIDTH 10 0
BBX 10 8 0 0
BITMAP
7FC0
1900
1300
1300
3200
6200
E280
C300
ENDCHAR
STARTCHAR uni1E02
ENCODING 7682
SWIDTH 551 0
DWIDTH 9 0
BBX 9 16 1 0
BITMAP
0400
0600
0600
0000
3E00
E100
3180
3180
6300
6600
FC00
C600
8600
8600
8C00
F000
ENDCHAR
STARTCHAR uni1E03
ENCODING 7683
SWIDTH 525 0
DWIDTH 8 0
BBX 8 13 1 0
BITMAP
30
33
37
20
60
7C
66
E6
C6
84
8C
98
F0
ENDCHAR
STARTCHAR uni1E0A
ENCODING 7690
SWIDTH 630 0
DWIDTH 10 0
BBX 9 16 1 0
BITMAP
0200
0600
0600
0000
7E00
6180
1980
3080
3080
6180
6180
C300
C300
C600
9C00
F000
ENDCHAR
STARTCHAR uni1E0B
ENCODING 7691
SWIDTH 557 0
DWIDTH 9 0
BBX 9 13 1 0
BITMAP
0080
3180
3180
0100
0300
1F00
2600
4600
C600
CC00
8C00
9D00
E600
ENDCHAR
STARTCHAR uni1E1E
ENCODING 7710
SWIDTH 518 0
DWIDTH 8 0
BBX 10 16 0 0
BITMAP
0100
0380
0100
0000
3FC0
6400
4C00
0C00
0C00
1800
3F00
1800
3000
3000
6000
C000
ENDCHAR
STARTCHAR uni1E1F
ENCODING 7711
SWIDTH 393 0
DWIDTH 6 0
BBX 9 18 0 -2
BITMAP
0400
0600
0400
0700
0D80
0980
1B00
1800
1000
7E00
3000
2000
2000
6000
6000
4000
C000
8000
ENDCHAR
STARTCHAR uni1E40
ENCODING 7744
SWIDTH 931 0
DWIDTH 15 0
BBX 17 16 -2 0
BITMAP
000400
000E00
000400
000000
006180
00E380
016500
02CF00
06CB00
04D200
0C9600
09A600
19A600
31C400
21C400
E18700
ENDCHAR
STARTCHAR uni1E41
ENCODING 7745
SWIDTH 814 0
DWIDTH 13 0
BBX 12 12 0 0
BITMAP
0180
0180
0000
0000
3330
3550
3BB0
3330
6260
4660
C470
C470
ENDCHAR
STARTCHAR uni1E56
ENCODING 7766
SWIDTH 553 0
DWIDTH 9 0
BBX 11 16 -1 0
BITMAP
0080
01C0
0080
0000
0F80
1860
0460
0C60
0CC0
1980
1F00
1000
3000
3000
6000
C000
ENDCHAR
STARTCHAR uni1E57
ENCODING 7767
SWIDTH 550 0
DWIDTH 9 0
BBX 9 16 -1 -4
BITMAP
0300
0300
0000
0000
3B80
1580
1980
3180
3180
3300
3600
7C00
6000
4000
C000
8000
ENDCHAR
STARTCHAR uni1E60
ENCODING 7776
SWIDTH 474 0
DWIDTH 8 0
BBX 9 16 0 0
BITMAP
0200
0300
0200
0000
0F00
1980
3180
3180
3300
3200
3800
1800
0C00
4C00
C800
7000
ENDCHAR
STARTCHAR uni1E61
ENCODING 7777
SWIDTH 423 0
DWIDTH 7 0
BBX 7 12 0 0
BITMAP
06
0E
00
00
1C
26
24
30
38
58
D8
70
ENDCHAR
STARTCHAR uni1E6A
ENCODING 7786
SWIDTH 430 0
DWIDTH 7 0
BBX 9 16 1 0
BITMAP
0400
0600
0400
0000
F880
8F00
9800
1800
1800
3000
3000
3000
2000
6000
4000
8000
ENDCHAR
STARTCHAR uni1E6B
ENCODING 7787
SWIDTH 358 0
DWIDTH 6 0
BBX 6 12 1 0
BITMAP
1C
18
10
30
FC
60
60
40
C0
C0
D0
60
ENDCHAR
STARTCHAR Wgrave
ENCODING 7808
SWIDTH 941 0
DWIDTH 15 0
BBX 15 16 1 0
BITMAP
0080
0180
00C0
0020
F00E
5806
18C6
3186
3386
6704
6F0C
CB0C
D318
F330
E360
41C0
ENDCHAR
STARTCHAR wgrave
ENCODING 7809
SWIDTH 750 0
DWIDTH 12 0
BBX 11 12 1 0
BITMAP
0600
0600
0200
0000
6060
6660
6660
4C40
DC40
9C80
ED80
C600
ENDCHAR
STARTCHAR Wacute
ENCODING 7810
SWIDTH 941 0
DWIDTH 15 0
BBX 15 15 1 0
BITMAP
0030
0060
0040
F00E
5806
18C6
3186
3386
6704
6F0C
CB0C
D318
D310
E320
41C0
ENDCHAR
STARTCHAR wacute
ENCODING 7811
SWIDTH 750 0
DWIDTH 12 0
BBX 11 12 1 0
BITMAP
0100
0300
0600
0400
6060
6660
6660
4C40
DC40
9C80
ED80
C600
ENDCHAR
STARTCHAR Wdieresis
ENCODING 7812
SWIDTH 941 0
DWIDTH 15 0
BBX 15 15 1 0
BITMAP
01B8
01B0
0000
F00E
5806
18C6
3186
3386
6704
6F0C
CB0C
D318
F330
E360
41C0
ENDCHAR
STARTCHAR wdieresis
ENCODING 7813
SWIDTH 750 0
DWIDTH 12 0
BBX 11 12 1 0
BITMAP
0DC0
0DC0
0000
0000
6060
6660
6660
4C40
DC40
9C80
ED80
C600
ENDCHAR
STARTCHAR Ygrave
ENCODING 7922
SWIDTH 580 0
DWIDTH 9 0
BBX 11 20 0 -4
BITMAP
0200
0300
0180
0000
1860
1860
18C0
18C0
3180
3180
6380
6300
4500
C700
CA00
7600
0C00
0800
1000
6000
ENDCHAR
STARTCHAR ygrave
ENCODING 7923
SWIDTH 549 0
DWIDTH 9 0
BBX 9 17 0 -5
BITMAP
0400
0400
0600
0000
3180
3180
3300
2300
6700
6A00
D600
6400
0C00
0800
1800
3000
6000
ENDCHAR
STARTCHAR endash
ENCODING 8211
SWIDTH 751 0
DWIDTH 12 0
BBX 10 1 1 4
BITMAP
FFC0
ENDCHAR
STARTCHAR emdash
ENCODING 8212
SWIDTH 1066 0
DWIDTH 17 0
BBX 15 1 1 4
BITMAP
FFFE
ENDCHAR
STARTCHAR quoteleft
ENCODING 8216
SWIDTH 268 0
DWIDTH 4 0
BBX 3 4 2 9
BITMAP
60
40
C0
C0
ENDCHAR
STARTCHAR quoteright
ENCODING 8217
SWIDTH 268 0
DWIDTH 4 0
BBX 3 4 2 9
BITMAP
60
60
60
C0
ENDCHAR
STARTCHAR quotesinglbase
ENCODING 8218
SWIDTH 268 0
DWIDTH 4 0
BBX 3 4 0 -2
BITMAP
60
60
40
C0
ENDCHAR
STARTCHAR quotedblleft
ENCODING 8220
SWIDTH 485 0
DWIDTH 8 0
BBX 6 4 2 9
BITMAP
24
48
D8
C8
ENDCHAR
STARTCHAR quotedblright
ENCODING 8221
SWIDTH 480 0
DWIDTH 8 0
BBX 6 4 2 9
BITMAP
6C
24
64
D8
ENDCHAR
STARTCHAR quotedblbase
ENCODING 8222
SWIDTH 463 0
DWIDTH 7 0
BBX 6 4 0 -2
BITMAP
6C
6C
4C
D8
ENDCHAR
STARTCHAR dagger
ENCODING 8224
SWIDTH 488 0
DWIDTH 8 0
BBX 7 12 1 0
BITMAP
08
1C
18
7E
18
30
30
20
20
60
40
80
ENDCHAR
STARTCHAR daggerdbl
ENCODING 8225
SWIDTH 488 0
DWIDTH 8 0
BBX 7 12 1 0
BITMAP
08
1C
18
7E
18
30
30
FC
20
60
40
80
ENDCHAR
STARTCHAR bullet
ENCODING 8226
SWIDTH 437 0
DWIDTH 7 0
BBX 4 4 2 3
BITMAP
E0
F0
E0
40
ENDCHAR
STARTCHAR ellipsis
ENCODING 8230
SWIDTH 810 0
DWIDTH 13 0
BBX 12 2 0 0
BITMAP
6660
E670
ENDCHAR
STARTCHAR perthousand
ENCODING 8240
SWIDTH 1184 0
DWIDTH 19 0
BBX 17 12 1 0
BITMAP
384000
688000
C98000
DB0000
DA0000
760000
0CC700
096D80
1B6D80
326980
224B00
438E00
ENDCHAR
STARTCHAR guilsinglleft
ENCODING 8249
SWIDTH 413 0
DWIDTH 7 0
BBX 5 7 1 1
BITMAP
08
30
60
C0
60
30
10
ENDCHAR
STARTCHAR guilsinglright
ENCODING 8250
SWIDTH 416 0
DWIDTH 7 0
BBX 5 7 1 1
BITMAP
40
60
30
18
60
C0
80
ENDCHAR
STARTCHAR fraction
ENCODING 8260
SWIDTH 580 0
DWIDTH 9 0
BBX 9 13 0 0
BITMAP
0080
0100
0300
0200
0600
0400
0800
1800
1000
3000
2000
6000
C000
ENDCHAR
STARTCHAR Euro
ENCODING 8364
SWIDTH 622 0
DWIDTH 10 0
BBX 10 12 1 0
BITMAP
0380
0CC0
18C0
1980
3100
7C00
6000
FC00
6000
6000
2200
3E00
ENDCHAR
STARTCHAR trademark
ENCODING 8482
SWIDTH 1084 0
DWIDTH 17 0
BBX 13 6 3 6
BITMAP
FD98
23B0
63D0
4550
4590
6990
ENDCHAR
STARTCHAR Omega
ENCODING 8486
SWIDTH 839 0
DWIDTH 13 0
BBX 12 12 1 0
BITMAP
1F00
30C0
6060
4060
C060
C060
C060
4060
6040
20C0
91B0
F9F0
ENDCHAR
STARTCHAR partialdiff
ENCODING 8706
SWIDTH 580 0
DWIDTH 9 0
BBX 9 13 0 0
BITMAP
0700
0D80
0880
0080
0E80
3980
7180
6180
6300
C300
C600
4C00
7800
ENDCHAR
STARTCHAR Delta
ENCODING 8710
SWIDTH 663 0
DWIDTH 11 0
BBX 10 10 0 0
BITMAP
0400
0600
0E00
1B00
1300
3100
2180
4080
40C0
FFC0
ENDCHAR
STARTCHAR product
ENCODING 8719
SWIDTH 667 0
DWIDTH 11 0
BBX 9 13 1 -1
BITMAP
7F80
C180
C180
C180
C180
C180
C180
C180
C180
C180
C180
C180
C180
ENDCHAR
STARTCHAR summation
ENCODING 8721
SWIDTH 677 0
DWIDTH 11 0
BBX 9 13 1 -1
BITMAP
7F80
E000
6000
3000
3800
1C00
0C00
0800
1000
3000
6000
C000
FF00
ENDCHAR
STARTCHAR minus
ENCODING 8722
SWIDTH 617 0
DWIDTH 10 0
BBX 8 1 1 5
BITMAP
FF
ENDCHAR
STARTCHAR radical
ENCODING 8730
SWIDTH 709 0
DWIDTH 11 0
BBX 13 15 0 0
BITMAP
0018
0018
0030
0030
0060
0060
00C0
3080
7180
D100
1B00
1A00
1E00
0C00
0800
ENDCHAR
STARTCHAR infinity
ENCODING 8734
SWIDTH 681 0
DWIDTH 11 0
BBX 9 5 1 3
BITMAP
7780
CC80
9880
FF80
6300
ENDCHAR
STARTCHAR integral
ENCODING 8747
SWIDTH 583 0
DWIDTH 9 0
BBX 12 18 -1 -3
BITMAP
0060
00D0
0190
01B0
0300
0300
0300
0600
0600
0600
0400
0C00
0C00
0800
D800
9800
B000
E000
ENDCHAR
STARTCHAR approxequal
ENCODING 8776
SWIDTH 671 0
DWIDTH 11 0
BBX 9 7 1 2
BITMAP
3880
7C80
8F00
0000
7880
DD00
8E00
ENDCHAR
STARTCHAR notequal
ENCODING 8800
SWIDTH 617 0
DWIDTH 10 0
BBX 8 10 1 1
BITMAP
03
02
04
FF
08
18
FF
20
60
C0
ENDCHAR
STARTCHAR lessequal
ENCODING 8804
SWIDTH 704 0
DWIDTH 11 0
BBX 8 11 1 0
BITMAP
01
07
0C
30
C0
60
18
06
03
00
FF
ENDCHAR
STARTCHAR greaterequal
ENCODING 8805
SWIDTH 617 0
DWIDTH 10 0
BBX 8 11 1 0
BITMAP
80
60
38
0E
03
0E
38
60
80
00
FF
ENDCHAR
STARTCHAR lozenge
ENCODING 9674
SWIDTH 580 0
DWIDTH 9 0
BBX 7 12 1 0
BITMAP
10
38
28
44
C6
82
82
C6
64
2C
38
10
ENDCHAR
STARTCHAR commaaccent
ENCODING 63171
SWIDTH 250 0
DWIDTH 4 0
BBX 2 3 1 -4
BITMAP
C0
40
80
ENDCHAR
STARTCHAR ff
ENCODING 64256
SWIDTH 773 0
DWIDTH 12 0
BBX 15 15 0 -2
BITMAP
071C
0DB6
09B6
1B2C
1860
1060
7FF8
70C0
30C0
2080
6180
6180
4100
C300
8200
ENDCHAR
STARTCHAR fi
ENCODING 64257
SWIDTH 623 0
DWIDTH 10 0
BBX 10 15 0 -2
BITMAP
0380
0640
0C40
08C0
1800
1F80
7080
3180
2180
6100
6300
6300
4380
C000
8000
ENDCHAR
STARTCHAR fl
ENCODING 64258
SWIDTH 637 0
DWIDTH 10 0
BBX 11 15 0 -2
BITMAP
03C0
0660
0C60
1840
18C0
18C0
7E80
7180
3180
2100
6300
6300
C180
C000
8000
ENDCHAR
STARTCHAR .notdef
ENCODING -1
SWIDTH 896 0
DWIDTH 14 0
BBX 15 14 1 0
BITMAP
0FFE
1FFE
1FFC
1DCC
393C
3978
38F8
7DF8
78F8
72F0
6630
FFF0
FFE0
FFE0
ENDCHAR
ENDFONT
